<svg xmlns="http://www.w3.org/2000/svg" viewBox="0 0 60 28.083" enable-background="new 0 0 60 28.083"><g fill="#1FBECC"><path d="M31.537 10.815l-.914 2.525c-.029.08-.147.06-.147-.025l-.041-4.722c-.001-.064.073-.1.123-.06l3.554 2.829c.065.052.011.156-.069.132l-2.412-.726-.094.047zM28.42 10.784l-2.278.708c-.08.025-.135-.078-.071-.131l3.437-2.822c.049-.041.124-.006.124.058l.043 4.737c.001.084-.115.107-.147.029l-1.016-2.534-.092-.045zM26.499 8.328l-3.248-2.198c-.057-.039-.037-.127.031-.138l3.37-.534.059.016 2.601 2.069c.038.03.038.087.001.118l-4.096 3.364c-.065.053-.156-.023-.114-.096l1.42-2.5-.024-.101zM27.181 4.791l-.264-3.405c-.005-.069.076-.108.127-.062l2.52 2.304.025.055.026 2.916c.001.064-.073.1-.123.06l-2.282-1.815-.029-.053zM30.415 3.623l2.495-2.327c.05-.047.132-.008.128.061l-.233 3.408-.028.054-2.237 1.834c-.049.041-.124.006-.124-.058l-.026-2.916.025-.056zM30.735 7.532l2.548-2.091.059-.016 3.376.499c.068.01.089.098.032.138l-3.225 2.234-.022.101 1.372 2.361c.042.073-.047.15-.113.098l-4.027-3.206c-.037-.03-.038-.088 0-.118z"/></g><path fill="#1FBECC" d="M2.524 21.137h54.951v.589h-54.951z"/><g fill="#1FBECC"><path d="M4.305 19.017c0 .179.012.324.036.435.023.11.072.195.145.255.073.059.177.1.311.123s.314.038.541.043v.282h-2.814v-.282c.156-.005.283-.02.382-.043s.174-.063.226-.12.087-.137.106-.24l.028-.402v-3.265c0-.165-.008-.298-.025-.399s-.048-.182-.095-.24c-.047-.059-.114-.099-.201-.12l-.343-.046v-.282h4.324l.085 1.49h-.296c-.028-.202-.069-.373-.124-.512-.054-.14-.131-.252-.23-.34-.099-.087-.226-.149-.381-.187-.155-.038-.346-.057-.572-.057h-.975c-.085 0-.127.04-.127.12v2.042c.288 0 .522-.012.703-.035s.326-.069.435-.138.186-.162.233-.279c.047-.118.08-.273.099-.467h.262v2.212h-.263c-.028-.198-.068-.356-.12-.477s-.13-.213-.236-.276c-.106-.063-.249-.106-.428-.13-.179-.024-.408-.036-.686-.036v1.371zM9.951 20.155h-2.522v-.282c.16-.005.289-.021.385-.046.096-.026.17-.074.223-.146.052-.07.087-.171.106-.3.019-.13.028-.306.028-.526v-2.841c0-.198-.008-.361-.024-.491s-.048-.232-.096-.308c-.047-.075-.114-.128-.201-.159-.087-.03-.204-.05-.35-.06v-.282h2.381v.282c-.146.01-.263.029-.35.06-.087.031-.154.084-.201.159-.047.075-.079.178-.096.308l-.024.491v2.841c0 .221.008.396.024.526.017.129.052.229.106.3.054.071.13.119.227.146.096.025.225.041.385.046v.282zM15.155 16.078c0 .391-.113.719-.339.982s-.586.44-1.081.529l1.639 1.88c.113.132.248.232.403.301s.313.103.474.103v.282h-1.675l-1.752-2.148c-.118-.141-.22-.236-.307-.286-.087-.049-.168-.074-.244-.074v1.386c0 .174.012.316.036.427.023.111.07.197.141.258.071.062.173.103.308.124s.314.032.541.032v.282h-2.806v-.282c.156 0 .282-.011.378-.032.096-.021.172-.062.226-.12s.09-.142.109-.247c.019-.106.028-.241.028-.406v-3.265l-.021-.399s-.045-.182-.092-.24c-.047-.059-.114-.099-.201-.12l-.35-.046v-.282h2.445c.683 0 1.21.12 1.583.36s.557.572.557 1.001zm-2.884 1.144h.459c.443 0 .774-.086.993-.258.219-.172.329-.456.329-.852 0-.301-.092-.544-.275-.728-.184-.184-.438-.275-.763-.275h-.615c-.085 0-.127.04-.127.12v1.993zM18.299 17.145c.302 0 .544-.01.728-.028.184-.02.326-.058.427-.117.102-.059.173-.145.216-.258s.075-.266.099-.459h.262v2.07h-.262c-.028-.188-.066-.339-.113-.452-.047-.113-.123-.199-.226-.258-.104-.06-.244-.097-.42-.113-.177-.017-.414-.024-.71-.024v1.455c0 .151.02.278.06.382s.107.188.202.251.219.108.375.134c.155.026.346.039.572.039.269 0 .496-.019.682-.057.186-.037.34-.104.463-.197.123-.095.222-.221.297-.379.075-.157.139-.356.191-.597h.283l-.113 1.618h-4.791v-.282c.156-.005.283-.02.382-.043s.174-.063.226-.12.087-.137.106-.24l.028-.402v-3.265c0-.165-.008-.298-.025-.399s-.048-.182-.095-.24c-.047-.059-.114-.099-.201-.12l-.343-.046v-.282h4.466l.049 1.385h-.304c-.028-.198-.073-.361-.134-.491-.062-.13-.146-.233-.254-.312-.108-.077-.249-.132-.42-.162-.172-.03-.383-.046-.633-.046h-.798c-.123 0-.198.016-.226.046l-.042.216v1.793zM27.089 18.572l.314-.382.25-.356.163-.3.057-.22c0-.075-.034-.129-.103-.162s-.185-.05-.35-.05v-.282h1.71v.282l-.279.028-.212.081-.173.135-.156.194-.982 1.363c.193.245.4.438.622.58.222.141.436.212.643.212.132 0 .235-.022.311-.067.075-.045.153-.133.233-.265l.184.049c-.052.264-.172.466-.36.604-.188.139-.434.208-.735.208-.123 0-.239-.014-.35-.042-.11-.028-.224-.073-.339-.135-.116-.061-.237-.14-.364-.236l-.424-.343c-.24.227-.524.409-.852.548-.327.139-.661.208-1 .208-.226 0-.435-.031-.625-.095s-.356-.151-.495-.262c-.139-.11-.248-.242-.325-.396s-.117-.319-.117-.498c0-.315.128-.609.385-.88s.666-.545 1.226-.823c-.155-.222-.27-.429-.343-.622s-.109-.396-.109-.607c0-.207.033-.397.099-.569s.159-.318.279-.441c.12-.122.264-.218.431-.286.167-.068.352-.103.555-.103.179 0 .344.026.495.078.15.052.28.125.389.219.108.095.193.205.254.332.061.127.092.269.092.424 0 .255-.09.496-.269.725-.179.229-.466.473-.862.731l1.132 1.421zm-1.901-.918c-.24.16-.424.349-.551.564-.127.217-.191.441-.191.672 0 .24.076.437.227.59.15.153.341.229.572.229.184 0 .381-.043.593-.131.212-.087.415-.208.608-.363l-1.258-1.561zm.523-.841c.203-.156.35-.316.441-.481.092-.164.138-.344.138-.536 0-.198-.048-.356-.145-.474-.097-.118-.228-.177-.392-.177-.302 0-.453.214-.453.643 0 .184.036.363.106.537.072.175.173.337.305.488zM34.112 20.225c-.424 0-.807-.062-1.148-.187-.341-.125-.631-.305-.869-.537-.237-.233-.421-.517-.551-.849s-.194-.705-.194-1.119c0-.429.069-.821.209-1.177.139-.355.333-.661.582-.915.25-.255.549-.451.897-.59.349-.14.735-.209 1.159-.209.292 0 .57.04.834.12s.549.21.854.389l.135-.438h.254v1.787h-.353c-.095-.442-.284-.786-.569-1.031s-.642-.368-1.07-.368c-.542 0-.962.209-1.262.626-.299.417-.448 1-.448 1.749 0 .734.146 1.298.438 1.688.293.391.717.587 1.272.587.4 0 .712-.103.937-.308.224-.205.335-.489.335-.852 0-.217-.057-.376-.169-.478-.113-.101-.304-.163-.572-.187v-.283h2.289v.283c-.23 0-.392.051-.48.151-.09.102-.135.284-.135.548v.939l-.261.011-.209.043-.229.103-.318.184c-.364.215-.816.32-1.358.32zM42.13 20.155h-4.869v-.282c.155-.005.283-.02.382-.043s.174-.063.227-.12c.052-.057.087-.137.105-.24l.028-.402v-3.265c0-.165-.008-.298-.024-.399s-.049-.182-.096-.24-.114-.099-.201-.12l-.343-.046v-.282h2.438v.282c-.16.005-.288.019-.385.042-.097.024-.171.066-.223.128-.052.061-.086.146-.103.254l-.024.431v2.961c0 .198.02.359.06.484s.109.222.209.29c.099.068.23.115.396.141.165.026.369.039.614.039.273 0 .502-.017.686-.05.184-.032.338-.095.463-.187s.225-.216.301-.371c.075-.155.139-.358.19-.608h.282l-.113 1.603zM46.115 18.508h-2c-.221.499-.332.846-.332 1.039 0 .141.054.23.159.269.106.037.265.057.478.057v.282h-1.937v-.282l.293-.057.22-.1.166-.166.134-.251 1.858-4.656h.522l1.689 4.127c.099.24.183.429.251.565s.141.241.219.314c.078.072.167.123.269.151s.231.05.393.063v.29h-2.672v-.29c.227-.009.389-.032.488-.07.099-.038.148-.113.148-.227l-.05-.254-.134-.382-.162-.422zm-1.837-.423h1.682l-.812-2.141h-.028l-.842 2.141zM48.825 18.353h.275c.065.447.245.8.537 1.057s.652.385 1.081.385c.174 0 .334-.021.48-.063.146-.043.271-.103.374-.181.104-.077.185-.169.24-.275.057-.105.085-.225.085-.356 0-.113-.018-.211-.053-.294-.035-.082-.103-.162-.201-.24-.1-.077-.234-.156-.406-.236s-.395-.172-.668-.275c-.551-.212-.959-.458-1.223-.738s-.396-.611-.396-.993c0-.222.042-.424.127-.607s.204-.342.357-.474c.152-.132.336-.234.551-.308.214-.072.451-.109.71-.109.24 0 .467.038.679.113s.421.188.629.339l.127-.354h.17l.077 1.526h-.275c-.113-.386-.29-.682-.53-.887s-.518-.307-.833-.307c-.293 0-.529.071-.711.215-.181.144-.271.329-.271.555 0 .1.017.187.049.266.033.077.095.151.185.222.089.071.212.143.367.216s.355.154.601.244c.33.127.611.256.845.385.232.13.424.269.572.417s.258.305.328.47.106.347.106.544c0 .24-.052.46-.156.657-.104.198-.248.368-.435.509-.186.142-.407.252-.664.332s-.54.12-.852.12c-.282 0-.536-.038-.763-.116s-.459-.204-.699-.378l-.142.424h-.17l-.104-1.805zM53.49 18.353h.275c.065.447.245.8.537 1.057s.652.385 1.081.385c.174 0 .334-.021.48-.063.146-.043.271-.103.374-.181.104-.077.185-.169.24-.275.057-.105.085-.225.085-.356 0-.113-.018-.211-.053-.294-.035-.082-.103-.162-.201-.24-.1-.077-.234-.156-.406-.236s-.395-.172-.668-.275c-.551-.212-.959-.458-1.223-.738s-.396-.611-.396-.993c0-.222.042-.424.127-.607s.204-.342.357-.474c.152-.132.336-.234.551-.308.214-.072.451-.109.71-.109.24 0 .467.038.679.113s.421.188.629.339l.127-.354h.17l.077 1.526h-.275c-.113-.386-.29-.682-.53-.887s-.518-.307-.833-.307c-.293 0-.529.071-.711.215-.181.144-.271.329-.271.555 0 .1.017.187.049.266.033.077.095.151.185.222.089.071.212.143.367.216s.355.154.601.244c.33.127.611.256.845.385.232.13.424.269.572.417s.258.305.328.47.106.347.106.544c0 .24-.052.46-.156.657-.104.198-.248.368-.435.509-.186.142-.407.252-.664.332s-.54.12-.852.12c-.282 0-.536-.038-.763-.116s-.459-.204-.699-.378l-.142.424h-.17l-.104-1.805zM3.406 24.503l.334-.024.214-.075.114-.132.035-.192h.129v1.005h-.13l-.031-.192-.11-.134-.214-.08c-.089-.019-.203-.028-.341-.028v.832l.03.201.101.129.19.07.29.021.332-.028c.091-.019.167-.05.228-.094s.11-.102.147-.175l.092-.271h.14l-.056.726h-2.286v-.14l.208-.022.123-.063.059-.125.015-.211v-1.716l-.013-.208-.052-.125-.112-.063-.192-.024v-.14h2.129l.033.647h-.128l-.072-.241-.136-.149-.219-.077-.321-.022h-.468l-.063.063v1.057zM6.643 24.544c.059-.073.088-.136.088-.188 0-.078-.072-.118-.217-.118v-.128h.806v.128l-.12.015-.105.048-.105.09-.12.142-.379.483.49.644c.076.1.146.171.212.212.065.041.135.061.208.061v.129h-.98v-.129l.184-.02.052-.079-.031-.075-.105-.145-.258-.332-.313.397-.055.133.044.086.14.035v.129h-.843v-.129l.151-.015.127-.052.125-.102.145-.166.376-.461-.49-.696-.154-.16-.177-.043v-.128h.906v.128l-.143.024-.044.065.07.155.265.387.25-.325zM9.098 25.796h-.015c-.086.108-.175.186-.267.232-.092.047-.203.07-.333.07-.138 0-.263-.024-.376-.071-.113-.048-.211-.115-.292-.203-.082-.087-.146-.192-.192-.313-.045-.122-.068-.255-.068-.4 0-.145.024-.28.073-.407.049-.126.117-.235.203-.329s.187-.167.302-.221c.116-.054.239-.08.372-.08s.261.027.383.08c.123.055.224.126.305.217l.162-.254h.092v2.276l.009.242.048.137.114.063.208.018v.129h-1.122v-.129l.193-.024.12-.07.063-.133.019-.208v-.622zm-.011-.913l-.04-.252-.114-.199-.173-.131-.214-.048c-.088 0-.167.02-.237.06-.07.039-.13.094-.181.167-.05.072-.089.161-.116.263-.027.103-.041.217-.041.343 0 .128.013.243.041.347.027.103.066.191.116.263.051.072.111.128.182.168.071.039.151.059.239.059.101 0 .192-.023.273-.07.081-.047.142-.113.184-.2.054-.107.081-.256.081-.445v-.325zM11.473 24.699l-.007-.237-.039-.133-.092-.063-.168-.028v-.128h.667v1.13l.005.343.016.199.024.075.05.045.086.022.138.006v.128l-.608.045-.04-.442h-.015c-.093.152-.201.263-.322.333-.122.071-.249.105-.381.105-.103 0-.203-.02-.3-.059-.097-.04-.17-.092-.219-.159-.042-.054-.072-.128-.09-.224-.018-.095-.028-.219-.028-.371v-.586l-.007-.237-.038-.133-.092-.063-.167-.028v-.129h.666v1.005c0 .267.031.462.094.582.063.12.163.181.3.181.216 0 .384-.142.504-.424l.029-.08.018-.081.011-.099.004-.133v-.362zM13.152 25.475l.013.23.05.136.103.069.177.022v.129h-1.057v-.129l.181-.024.108-.067.052-.128.013-.213v-.471l-.005-.352-.02-.19-.084-.116c-.044-.021-.128-.032-.251-.032v-.129l.722-.139v1.404zm-.423-2.149c0-.065.022-.118.067-.162.044-.045.098-.067.162-.067s.118.022.162.067c.044.044.067.097.067.162 0 .064-.022.117-.067.162-.044.044-.098.067-.162.067s-.118-.023-.162-.067c-.045-.045-.067-.099-.067-.162zM13.916 26.061h-.081v-.634h.092c.096.347.27.519.523.519.098 0 .176-.024.234-.071.058-.048.086-.121.086-.219l-.016-.093-.063-.081-.129-.097-.219-.14-.217-.144-.155-.134-.094-.146-.031-.18.042-.23.116-.179.173-.116.217-.042.206.031.188.082.073-.076h.07v.53h-.096c-.054-.15-.113-.257-.177-.321-.064-.064-.142-.095-.236-.095-.083 0-.15.022-.201.066-.05.045-.075.106-.075.185l.02.108.065.09.112.09.164.105.271.177.182.152.103.157.033.184c0 .175-.057.312-.17.411-.113.099-.261.149-.445.149-.192 0-.356-.056-.494-.166l-.071.128zM16.099 25.475l.013.23.05.136.103.069.177.022v.129h-1.057v-.129l.181-.024.108-.067.052-.128.013-.213v-.471l-.005-.352-.02-.19-.084-.116c-.044-.021-.128-.032-.251-.032v-.129l.722-.139v1.404zm-.423-2.149c0-.065.022-.118.067-.162.044-.045.098-.067.162-.067s.118.022.162.067c.044.044.067.097.067.162 0 .064-.022.117-.067.162-.044.044-.098.067-.162.067s-.118-.023-.162-.067c-.045-.045-.067-.099-.067-.162zM16.622 24.341v-.136c.13-.076.232-.152.305-.228.074-.075.13-.167.169-.272h.107v.464h.494v.173h-.494v1.12l.013.216.043.142.077.075.122.022.156-.039.127-.13.092.07c-.035.091-.094.161-.179.209-.085.048-.19.071-.315.071-.162 0-.285-.039-.37-.116-.085-.077-.127-.188-.127-.333v-1.308h-.22zM19.769 25.719c-.209.253-.467.379-.777.379-.145 0-.277-.024-.394-.071-.118-.048-.219-.115-.304-.203-.084-.087-.15-.192-.197-.313-.047-.122-.07-.256-.07-.403 0-.15.025-.289.074-.416.049-.128.118-.237.208-.329.089-.09.196-.162.32-.214.124-.052.26-.076.407-.076.238 0 .422.064.552.193.13.129.195.314.195.554l-.02.063-.094.011h-1.212l-.011.072-.004.093c0 .128.015.244.046.349.031.104.075.193.133.267.058.073.127.13.207.171.079.041.168.061.267.061.103 0 .199-.023.287-.068.088-.046.179-.12.273-.223l.114.103zm-.607-.994l.118-.004.067-.015.029-.031.007-.054c0-.113-.036-.203-.109-.271-.072-.067-.171-.1-.296-.1-.265 0-.429.158-.494.475h.678zM22.856 25.402l.957-2.176h.825v.14l-.19.029-.111.086-.052.168-.012.272v1.444l.014.291.057.166.122.077.208.022v.14h-1.193v-.14l.208-.024.123-.075.059-.157.015-.274v-1.709h-.036l-1.075 2.416h-.081l-1.057-2.416h-.014v1.683l.014.291.057.166.122.077.208.022v.14h-1.027v-.14l.208-.024.123-.075.059-.157.015-.274v-1.495l-.013-.256-.052-.161-.112-.082-.192-.031v-.14h.88l.928 2.176h.015zM25.738 25.475l.013.23.05.136.103.069.177.022v.129h-1.057v-.129l.181-.024.108-.067.052-.128.013-.213v-.471l-.005-.352-.02-.19-.084-.116c-.044-.021-.128-.032-.251-.032v-.129l.722-.139v1.404zm-.424-2.149c0-.065.022-.118.067-.162.044-.045.098-.067.162-.067s.118.022.162.067c.044.044.067.097.067.162 0 .064-.022.117-.067.162-.044.044-.098.067-.162.067s-.118-.023-.162-.067c-.044-.045-.067-.099-.067-.162zM27.025 25.483l.007.237.039.132.092.062.168.022v.125h-.965v-.125l.164-.022.094-.06.042-.125.009-.22v-.49c0-.293-.007-.471-.022-.534l-.028-.079-.05-.048-.084-.022-.133-.006v-.118l.589-.139.044.364h.015c.093-.116.203-.206.328-.269.125-.064.262-.095.409-.095.113 0 .216.018.309.055.093.037.164.087.214.151.042.057.071.13.088.219s.026.213.026.37v.615l.009.237.039.132.09.062.16.022v.125h-.954v-.125l.164-.02.092-.062.04-.127.009-.218v-.487l-.022-.354-.071-.231-.131-.127-.195-.039c-.11 0-.212.029-.304.086-.092.058-.164.137-.215.237l-.031.071-.02.076-.011.101-.003.146v.495zM30.66 25.719c-.209.253-.467.379-.777.379-.145 0-.277-.024-.394-.071-.118-.048-.219-.115-.304-.203-.084-.087-.15-.192-.197-.313-.047-.122-.07-.256-.07-.403 0-.15.025-.289.074-.416.049-.128.118-.237.208-.329.089-.09.196-.162.32-.214.124-.052.26-.076.407-.076.238 0 .422.064.552.193s.195.314.195.554l-.02.063-.094.011h-1.212l-.011.072-.004.093c0 .128.015.244.046.349.031.104.075.193.133.267.058.073.127.13.207.171.079.041.168.061.267.061.103 0 .199-.023.287-.068.088-.046.179-.12.273-.223l.114.103zm-.607-.994l.118-.004.067-.015.029-.031.007-.054c0-.113-.036-.203-.109-.271-.072-.067-.171-.1-.296-.1-.265 0-.429.158-.494.475h.678zM31.666 25.475l.008.239.039.135.089.061.166.022v.129h-.979v-.129l.169-.02.096-.061.043-.127.009-.223v-.431l-.006-.39-.037-.206-.097-.079-.185-.013v-.129l.644-.14.052.457h.015l.12-.203.156-.156.177-.101.188-.037c.079 0 .141.019.187.057.045.038.068.089.068.153l-.055.138-.159.05-.099-.015-.071-.031-.06-.032-.061-.015c-.066 0-.132.043-.199.127-.067.085-.118.193-.155.323l-.046.241-.017.281v.125zM33.939 24.813v-.151c0-.3-.127-.45-.382-.45l-.107.012-.073.037-.054.073-.046.117-.079.142-.112.035c-.123 0-.185-.061-.185-.184 0-.118.063-.21.189-.274.125-.066.303-.097.533-.097.245 0 .42.043.523.13s.155.235.155.444v.825c0 .28.055.419.165.419l.1-.013.08-.068.052.088c-.03.057-.083.103-.162.142-.078.038-.161.057-.247.057-.107 0-.188-.035-.24-.103-.054-.069-.079-.166-.079-.291h-.02c-.064.12-.152.215-.265.286-.112.07-.237.104-.375.104-.155 0-.276-.039-.364-.117-.088-.078-.133-.185-.133-.317l.032-.17.101-.155.184-.145.28-.145.529-.231zm0 .158l-.356.159-.233.155-.127.154-.039.159c0 .08.027.147.081.199.054.052.125.077.214.077l.179-.048.145-.131.099-.196.037-.237v-.291zM35.598 25.487l.011.224.047.132.099.067.171.022v.129h-1.016v-.129l.177-.024.104-.065.052-.123.013-.209v-1.587l-.005-.333-.017-.183-.086-.114-.245-.03v-.125l.696-.136v2.484zM36.361 26.061h-.081v-.634h.092c.095.347.27.519.523.519.097 0 .176-.024.233-.071.058-.048.086-.121.086-.219l-.016-.093-.063-.081-.129-.097-.219-.14-.217-.144-.154-.134-.094-.146-.032-.18.043-.23.116-.179.173-.116.217-.042.207.031.188.082.073-.076h.07v.53h-.095c-.054-.15-.113-.257-.177-.321-.064-.064-.142-.095-.235-.095-.083 0-.151.022-.201.066-.051.045-.075.106-.075.185l.02.108.065.09.112.09.164.105.271.177.182.152.103.157.033.184c0 .175-.057.312-.169.411-.113.099-.262.149-.446.149-.192 0-.356-.056-.494-.166l-.074.128zM39.874 24.813v-.151c0-.3-.127-.45-.382-.45l-.107.012-.073.037-.054.073-.046.117-.079.142-.112.035c-.123 0-.185-.061-.185-.184 0-.118.063-.21.189-.274.125-.066.303-.097.533-.097.245 0 .42.043.523.13s.155.235.155.444v.825c0 .28.055.419.165.419l.1-.013.08-.068.052.088c-.03.057-.083.103-.162.142-.078.038-.161.057-.247.057-.107 0-.188-.035-.24-.103-.054-.069-.079-.166-.079-.291h-.019c-.064.12-.152.215-.265.286-.112.07-.237.104-.375.104-.155 0-.276-.039-.364-.117-.088-.078-.133-.185-.133-.317l.032-.17.101-.155.184-.145.28-.145.528-.231zm0 .158l-.356.159-.233.155-.127.154-.039.159c0 .08.027.147.081.199.054.052.125.077.214.077l.179-.048.145-.131.099-.196.037-.237v-.291zM41.535 25.483l.007.237.039.132.092.062.168.022v.125h-.965v-.125l.164-.022.094-.06.042-.125.01-.22v-.49c0-.293-.008-.471-.023-.534l-.027-.079-.05-.048-.085-.022-.132-.006v-.118l.589-.139.045.364h.014c.093-.116.203-.206.328-.269.126-.064.262-.095.409-.095.113 0 .216.018.31.055.093.037.164.087.214.151.042.057.071.13.088.219s.026.213.026.37v.615l.009.237.039.132.09.062.16.022v.125h-.953v-.125l.164-.02.091-.062.041-.127.009-.218v-.487l-.022-.354-.071-.231-.131-.127-.195-.039c-.111 0-.213.029-.304.086-.092.058-.164.137-.215.237l-.032.071-.02.076-.011.101-.004.146v.495zM45.021 25.753h-.015c-.088.125-.183.214-.282.266-.099.053-.216.079-.352.079-.14 0-.268-.025-.384-.075-.117-.051-.217-.12-.302-.21-.085-.09-.151-.198-.2-.323-.048-.125-.071-.261-.071-.408 0-.145.024-.28.071-.403.049-.124.114-.231.2-.321.084-.089.186-.16.303-.21.118-.051.246-.075.383-.075.118 0 .223.019.315.059.092.039.182.101.267.188v-.375l-.005-.351-.017-.191c-.013-.055-.047-.092-.103-.114-.057-.023-.149-.034-.276-.034v-.11l.755-.14v2.125l.004.418.022.233.028.073.048.047.084.024.138.007v.125l-.611.041v-.345zm-.073-.815l-.021-.291-.078-.173c-.057-.073-.129-.13-.215-.168-.087-.038-.174-.057-.26-.057-.177 0-.311.072-.403.218-.092.146-.138.345-.138.595 0 .13.012.248.035.354.024.105.058.196.103.271.046.074.102.132.17.173.068.041.145.061.233.061l.135-.015.132-.046.12-.073.091-.098.073-.195.023-.313v-.243zM48.173 26.098c-.209 0-.396-.033-.563-.099-.167-.067-.31-.16-.427-.282-.118-.121-.209-.269-.271-.444-.063-.174-.094-.367-.094-.581 0-.223.035-.428.103-.612.07-.184.166-.343.289-.475.124-.133.273-.235.446-.308.173-.072.364-.108.573-.108.147 0 .286.021.416.063s.271.109.423.203l.077-.228h.129l-.048.847h-.176c0-.121-.023-.224-.069-.312-.046-.087-.105-.159-.179-.215-.073-.057-.158-.098-.252-.125l-.289-.041c-.15 0-.283.03-.401.088-.118.06-.217.144-.298.254-.081.11-.143.245-.187.405-.043.16-.065.341-.065.541 0 .395.082.699.247.912.164.213.402.319.714.319.118 0 .223-.014.317-.043.093-.028.173-.067.237-.114.066-.048.114-.103.148-.166l.05-.197c0-.142-.029-.238-.086-.289-.058-.051-.152-.075-.282-.075v-.14h1.046v.14l-.147.015-.094.053-.048.101-.013.159v.412l-.127.006-.119.026-.139.055-.178.094c-.086.049-.185.088-.297.118-.111.028-.233.043-.366.043zM51.786 25.719c-.209.253-.468.379-.778.379-.145 0-.276-.024-.394-.071-.117-.048-.218-.115-.303-.203-.085-.087-.151-.192-.198-.313-.047-.122-.07-.256-.07-.403 0-.15.024-.289.073-.416.049-.128.118-.237.208-.329.09-.09.197-.162.321-.214s.259-.076.407-.076c.238 0 .422.064.552.193s.196.314.196.554l-.021.063-.093.011h-1.212l-.012.072-.003.093c0 .128.015.244.046.349.031.104.074.193.133.267.058.073.126.13.206.171.08.041.169.061.267.061.103 0 .199-.023.287-.068.088-.046.18-.12.273-.223l.115.103zm-.608-.994l.118-.004.066-.015.03-.031.007-.054c0-.113-.036-.203-.108-.271-.072-.067-.171-.1-.297-.1-.265 0-.429.158-.493.475h.677zM52.782 25.472l.007.242.039.135.09.061.166.022v.129h-.98v-.129l.17-.022.095-.059.043-.127.009-.223v-.471l-.005-.351-.021-.191-.026-.075-.048-.045-.086-.022-.138-.006v-.129l.6-.139.048.367h.019c.11-.125.226-.217.348-.278.122-.06.256-.089.403-.089.155 0 .285.031.391.093.105.063.179.153.22.271h.015c.09-.116.202-.206.332-.269.13-.064.268-.095.416-.095.115 0 .22.019.315.057s.166.09.215.157c.044.056.075.13.093.222.019.092.028.217.028.377v.586l.009.239.039.136.09.063.168.022v.129h-.98v-.129l.166-.02.096-.063.042-.127.01-.221v-.464l-.023-.356-.073-.235-.134-.131-.201-.041c-.108 0-.21.031-.304.09-.094.061-.169.141-.223.241l-.031.072-.02.076-.01.101-.002.148v.468l.008.239.039.136.093.063.17.022v.129h-.979v-.129l.165-.022.094-.059.041-.127.009-.223v-.464l-.022-.358-.072-.236-.13-.129-.199-.039c-.111 0-.214.031-.312.09-.096.061-.17.141-.218.241l-.032.072-.02.076-.01.101-.001.148v.472zM56.267 26.061h-.081v-.634h.092c.095.347.27.519.523.519.097 0 .176-.024.233-.071.058-.048.086-.121.086-.219l-.016-.093-.063-.081-.129-.097-.219-.14-.217-.144-.154-.134-.094-.146-.032-.18.043-.23.116-.179.173-.116.217-.042.207.031.188.082.073-.076h.07v.53h-.095c-.054-.15-.113-.257-.177-.321-.064-.064-.142-.095-.235-.095-.083 0-.151.022-.201.066-.051.045-.075.106-.075.185l.02.108.065.09.112.09.164.105.271.177.182.152.103.157.033.184c0 .175-.057.312-.169.411-.113.099-.262.149-.446.149-.192 0-.356-.056-.494-.166l-.074.128z"/></g></svg>