<?xml version="1.0" encoding="utf-8"?>
<!-- Generator: Adobe Illustrator 17.1.0, SVG Export Plug-In . SVG Version: 6.00 Build 0)  -->
<!DOCTYPE svg PUBLIC "-//W3C//DTD SVG 1.1//EN" "http://www.w3.org/Graphics/SVG/1.1/DTD/svg11.dtd">
<svg version="1.1" id="Layer_1" xmlns="http://www.w3.org/2000/svg" xmlns:xlink="http://www.w3.org/1999/xlink" x="0px" y="0px"
	 viewBox="0 0 100 100" enable-background="new 0 0 100 100" xml:space="preserve">
<g>
	<path fill="#1FBECC" d="M84.1,42.09l-5.06-6.34l-1.7-7.43l-6.86-3.31l-5.31-6.65h-8.5L50,15.15l-6.67,3.21h-8.5l-5.31,6.65
		l-6.86,3.31l-1.7,7.43l-5.06,6.34L17.71,50l-1.81,7.91l5.06,6.34l1.7,7.43l6.86,3.3l5.31,6.65h8.5L50,84.85l6.67-3.22h8.5
		l5.31-6.64l6.86-3.31l1.7-7.43l5.06-6.34L82.29,50L84.1,42.09z M32.96,29.33l3.97-1.92l7.48,15.58l-13.7-10.85L32.96,29.33z
		 M25.93,38.14l2.27-2.84l13.51,10.71l-16.69-3.88L25.93,38.14z M23.22,50l0.9-3.94L41.09,50l-16.97,3.94L23.22,50z M28.2,64.7
		l-2.27-2.84l-0.91-3.99l16.69-3.88L28.2,64.7z M32.96,70.67l-2.25-2.82L44.41,57l-7.48,15.59L32.96,70.67z M47.98,76.26h-3.42
		l-3.99-1.92l7.41-15.47V76.26z M47.98,41.13l-7.41-15.47l3.99-1.92h3.42V41.13z M71.8,35.3l2.27,2.84l0.91,3.99L58.29,46L71.8,35.3
		z M67.04,29.33l2.25,2.81L55.6,42.99l7.47-15.58L67.04,29.33z M52.02,23.74h3.42l3.99,1.92l-7.41,15.47V23.74z M55.44,76.26h-3.42
		V58.87l7.41,15.47L55.44,76.26z M67.04,70.67l-3.97,1.92L55.6,57l13.69,10.85L67.04,70.67z M74.07,61.86L71.8,64.7L58.29,53.99
		l16.69,3.88L74.07,61.86z M75.88,53.94L58.91,50l16.97-3.94l0.9,3.94L75.88,53.94z"/>
	<polygon fill="#7BCED6" points="59.43,25.66 52.02,41.13 52.02,23.74 55.44,23.74 	"/>
	<polygon fill="#7BCED6" points="47.98,23.74 47.98,41.13 40.57,25.66 44.56,23.74 	"/>
	<polygon fill="#7BCED6" points="44.41,42.99 30.71,32.14 32.96,29.33 36.93,27.41 	"/>
	<polygon fill="#7BCED6" points="41.71,46.01 25.02,42.13 25.93,38.14 28.2,35.3 	"/>
	<polygon fill="#7BCED6" points="41.09,50 24.12,53.94 23.22,50 24.12,46.06 	"/>
	<polygon fill="#7BCED6" points="41.71,53.99 28.2,64.7 25.93,61.86 25.02,57.87 	"/>
	<polygon fill="#7BCED6" points="44.41,57 36.93,72.59 32.96,70.67 30.71,67.85 	"/>
	<polygon fill="#7BCED6" points="47.98,58.87 47.98,76.26 44.56,76.26 40.57,74.34 	"/>
	<polygon fill="#7BCED6" points="59.43,74.34 55.44,76.26 52.02,76.26 52.02,58.87 	"/>
	<polygon fill="#7BCED6" points="69.29,67.85 67.04,70.67 63.07,72.59 55.6,57 	"/>
	<polygon fill="#7BCED6" points="74.98,57.87 74.07,61.86 71.8,64.7 58.29,53.99 	"/>
	<polygon fill="#7BCED6" points="76.78,50 75.88,53.94 58.91,50 75.88,46.06 	"/>
	<polygon fill="#7BCED6" points="74.98,42.13 58.29,46 71.8,35.3 74.07,38.14 	"/>
	<polygon fill="#7BCED6" points="69.29,32.14 55.6,42.99 63.07,27.41 67.04,29.33 	"/>
</g>
</svg>
