<?xml version="1.0" encoding="utf-8"?>
<!-- Generator: Adobe Illustrator 17.1.0, SVG Export Plug-In . SVG Version: 6.00 Build 0)  -->
<!DOCTYPE svg PUBLIC "-//W3C//DTD SVG 1.1//EN" "http://www.w3.org/Graphics/SVG/1.1/DTD/svg11.dtd">
<svg version="1.1" id="Layer_1" xmlns="http://www.w3.org/2000/svg" xmlns:xlink="http://www.w3.org/1999/xlink" x="0px" y="0px"
	 viewBox="0 0 60 28.083" enable-background="new 0 0 60 28.083" xml:space="preserve">
<g>
	<g>
		<g>
			<path fill="#1FBECC" d="M31.537,10.815l-0.914,2.525c-0.029,0.08-0.147,0.06-0.147-0.025l-0.041-4.722
				c-0.001-0.064,0.073-0.1,0.123-0.06l3.554,2.829c0.065,0.052,0.011,0.156-0.069,0.132l-2.412-0.726
				C31.591,10.757,31.55,10.778,31.537,10.815z"/>
			<path fill="#1FBECC" d="M28.42,10.784l-2.278,0.708c-0.08,0.025-0.135-0.078-0.071-0.131l3.437-2.822
				c0.049-0.041,0.124-0.006,0.124,0.058l0.043,4.737c0.001,0.084-0.115,0.107-0.147,0.029l-1.016-2.534
				C28.498,10.792,28.457,10.773,28.42,10.784z"/>
			<path fill="#1FBECC" d="M26.499,8.328l-3.248-2.198c-0.057-0.039-0.037-0.127,0.031-0.138l3.37-0.534
				c0.021-0.003,0.043,0.002,0.059,0.016l2.601,2.069c0.038,0.03,0.038,0.087,0.001,0.118l-4.096,3.364
				c-0.065,0.053-0.156-0.023-0.114-0.096l1.42-2.5C26.542,8.394,26.532,8.35,26.499,8.328z"/>
			<path fill="#1FBECC" d="M27.181,4.791l-0.264-3.405c-0.005-0.069,0.076-0.108,0.127-0.062l2.52,2.304
				c0.016,0.014,0.025,0.034,0.025,0.055l0.026,2.916c0.001,0.064-0.073,0.1-0.123,0.06l-2.282-1.815
				C27.193,4.831,27.182,4.812,27.181,4.791z"/>
			<path fill="#1FBECC" d="M30.415,3.623l2.495-2.327c0.05-0.047,0.132-0.008,0.128,0.061l-0.233,3.408
				c-0.001,0.021-0.011,0.04-0.028,0.054L30.54,6.653c-0.049,0.041-0.124,0.006-0.124-0.058l-0.026-2.916
				C30.39,3.657,30.399,3.637,30.415,3.623z"/>
			<path fill="#1FBECC" d="M30.735,7.532l2.548-2.091c0.017-0.014,0.038-0.02,0.059-0.016l3.376,0.499
				c0.068,0.01,0.089,0.098,0.032,0.138l-3.225,2.234c-0.033,0.023-0.042,0.066-0.022,0.101l1.372,2.361
				c0.042,0.073-0.047,0.15-0.113,0.098L30.735,7.65C30.698,7.62,30.697,7.562,30.735,7.532z"/>
		</g>
	</g>
	<g>
		<rect x="2.524" y="21.137" fill="#1FBECC" width="54.951" height="0.589"/>
	</g>
	<g>
		<path fill="#1FBECC" d="M4.305,19.017c0,0.179,0.012,0.324,0.036,0.435c0.023,0.11,0.072,0.195,0.145,0.255
			c0.073,0.059,0.177,0.1,0.311,0.123s0.314,0.038,0.541,0.043v0.282H2.524v-0.282c0.156-0.005,0.283-0.02,0.382-0.043
			s0.174-0.063,0.226-0.12s0.087-0.137,0.106-0.24s0.028-0.237,0.028-0.402v-3.265c0-0.165-0.008-0.298-0.025-0.399
			s-0.048-0.182-0.095-0.24c-0.047-0.059-0.114-0.099-0.201-0.12c-0.087-0.021-0.202-0.036-0.343-0.046v-0.282h4.324l0.085,1.49
			H6.715c-0.028-0.202-0.069-0.373-0.124-0.512c-0.054-0.14-0.131-0.252-0.23-0.34c-0.099-0.087-0.226-0.149-0.381-0.187
			c-0.155-0.038-0.346-0.057-0.572-0.057H4.433c-0.085,0-0.127,0.04-0.127,0.12v2.042c0.288,0,0.522-0.012,0.703-0.035
			s0.326-0.069,0.435-0.138s0.186-0.162,0.233-0.279c0.047-0.118,0.08-0.273,0.099-0.467h0.262v2.212H5.775
			c-0.028-0.198-0.068-0.356-0.12-0.477s-0.13-0.213-0.236-0.276c-0.106-0.063-0.249-0.106-0.428-0.13
			c-0.179-0.024-0.408-0.036-0.686-0.036V19.017z"/>
		<path fill="#1FBECC" d="M9.951,20.155H7.429v-0.282c0.16-0.005,0.289-0.021,0.385-0.046c0.096-0.026,0.17-0.074,0.223-0.146
			c0.052-0.07,0.087-0.171,0.106-0.3c0.019-0.13,0.028-0.306,0.028-0.526v-2.841c0-0.198-0.008-0.361-0.024-0.491
			s-0.048-0.232-0.096-0.308c-0.047-0.075-0.114-0.128-0.201-0.159c-0.087-0.03-0.204-0.05-0.35-0.06v-0.282h2.381v0.282
			c-0.146,0.01-0.263,0.029-0.35,0.06c-0.087,0.031-0.154,0.084-0.201,0.159c-0.047,0.075-0.079,0.178-0.096,0.308
			s-0.024,0.293-0.024,0.491v2.841c0,0.221,0.008,0.396,0.024,0.526c0.017,0.129,0.052,0.229,0.106,0.3
			c0.054,0.071,0.13,0.119,0.227,0.146c0.096,0.025,0.225,0.041,0.385,0.046V20.155z"/>
		<path fill="#1FBECC" d="M15.155,16.078c0,0.391-0.113,0.719-0.339,0.982s-0.586,0.44-1.081,0.529l1.639,1.88
			c0.113,0.132,0.248,0.232,0.403,0.301s0.313,0.103,0.474,0.103v0.282h-1.675l-1.752-2.148c-0.118-0.141-0.22-0.236-0.307-0.286
			c-0.087-0.049-0.168-0.074-0.244-0.074v1.386c0,0.174,0.012,0.316,0.036,0.427c0.023,0.111,0.07,0.197,0.141,0.258
			c0.071,0.062,0.173,0.103,0.308,0.124s0.314,0.032,0.541,0.032v0.282h-2.806v-0.282c0.156,0,0.282-0.011,0.378-0.032
			c0.096-0.021,0.172-0.062,0.226-0.12s0.09-0.142,0.109-0.247c0.019-0.106,0.028-0.241,0.028-0.406v-3.265
			c0-0.165-0.007-0.298-0.021-0.399s-0.045-0.182-0.092-0.24c-0.047-0.059-0.114-0.099-0.201-0.12
			c-0.087-0.021-0.204-0.036-0.35-0.046v-0.282h2.445c0.683,0,1.21,0.12,1.583,0.36S15.155,15.649,15.155,16.078z M12.271,17.222
			h0.459c0.443,0,0.774-0.086,0.993-0.258c0.219-0.172,0.329-0.456,0.329-0.852c0-0.301-0.092-0.544-0.275-0.728
			c-0.184-0.184-0.438-0.275-0.763-0.275h-0.615c-0.085,0-0.127,0.04-0.127,0.12V17.222z"/>
		<path fill="#1FBECC" d="M18.299,17.145c0.302,0,0.544-0.01,0.728-0.028c0.184-0.02,0.326-0.058,0.427-0.117
			c0.102-0.059,0.173-0.145,0.216-0.258s0.075-0.266,0.099-0.459h0.262v2.07h-0.262c-0.028-0.188-0.066-0.339-0.113-0.452
			c-0.047-0.113-0.123-0.199-0.226-0.258c-0.104-0.06-0.244-0.097-0.42-0.113c-0.177-0.017-0.414-0.024-0.71-0.024v1.455
			c0,0.151,0.02,0.278,0.06,0.382s0.107,0.188,0.202,0.251s0.219,0.108,0.375,0.134c0.155,0.026,0.346,0.039,0.572,0.039
			c0.269,0,0.496-0.019,0.682-0.057c0.186-0.037,0.34-0.104,0.463-0.197c0.123-0.095,0.222-0.221,0.297-0.379
			c0.075-0.157,0.139-0.356,0.191-0.597h0.283l-0.113,1.618h-4.791v-0.282c0.156-0.005,0.283-0.02,0.382-0.043
			s0.174-0.063,0.226-0.12s0.087-0.137,0.106-0.24s0.028-0.237,0.028-0.402v-3.265c0-0.165-0.008-0.298-0.025-0.399
			s-0.048-0.182-0.095-0.24c-0.047-0.059-0.114-0.099-0.201-0.12c-0.087-0.021-0.202-0.036-0.343-0.046v-0.282h4.466l0.049,1.385
			h-0.304c-0.028-0.198-0.073-0.361-0.134-0.491c-0.062-0.13-0.146-0.233-0.254-0.312c-0.108-0.077-0.249-0.132-0.42-0.162
			c-0.172-0.03-0.383-0.046-0.633-0.046h-0.798c-0.123,0-0.198,0.016-0.226,0.046s-0.042,0.103-0.042,0.216V17.145z"/>
		<path fill="#1FBECC" d="M27.089,18.572c0.113-0.127,0.218-0.254,0.314-0.382c0.096-0.127,0.18-0.246,0.25-0.356
			c0.071-0.11,0.125-0.211,0.163-0.3c0.038-0.09,0.057-0.163,0.057-0.22c0-0.075-0.034-0.129-0.103-0.162s-0.185-0.05-0.35-0.05
			V16.82h1.71v0.282c-0.108,0-0.201,0.01-0.279,0.028c-0.078,0.019-0.148,0.046-0.212,0.081c-0.063,0.036-0.121,0.08-0.173,0.135
			c-0.052,0.054-0.104,0.119-0.156,0.194l-0.982,1.363c0.193,0.245,0.4,0.438,0.622,0.58c0.222,0.141,0.436,0.212,0.643,0.212
			c0.132,0,0.235-0.022,0.311-0.067c0.075-0.045,0.153-0.133,0.233-0.265l0.184,0.049c-0.052,0.264-0.172,0.466-0.36,0.604
			c-0.188,0.139-0.434,0.208-0.735,0.208c-0.123,0-0.239-0.014-0.35-0.042c-0.11-0.028-0.224-0.073-0.339-0.135
			c-0.116-0.061-0.237-0.14-0.364-0.236c-0.127-0.097-0.269-0.211-0.424-0.343c-0.24,0.227-0.524,0.409-0.852,0.548
			c-0.327,0.139-0.661,0.208-1,0.208c-0.226,0-0.435-0.031-0.625-0.095s-0.356-0.151-0.495-0.262
			c-0.139-0.11-0.248-0.242-0.325-0.396s-0.117-0.319-0.117-0.498c0-0.315,0.128-0.609,0.385-0.88
			c0.257-0.271,0.666-0.545,1.226-0.823c-0.155-0.222-0.27-0.429-0.343-0.622s-0.109-0.396-0.109-0.607
			c0-0.207,0.033-0.397,0.099-0.569s0.159-0.318,0.279-0.441c0.12-0.122,0.264-0.218,0.431-0.286
			c0.167-0.068,0.352-0.103,0.555-0.103c0.179,0,0.344,0.026,0.495,0.078c0.15,0.052,0.28,0.125,0.389,0.219
			c0.108,0.095,0.193,0.205,0.254,0.332c0.061,0.127,0.092,0.269,0.092,0.424c0,0.255-0.09,0.496-0.269,0.725
			c-0.179,0.229-0.466,0.473-0.862,0.731L27.089,18.572z M25.188,17.654c-0.24,0.16-0.424,0.349-0.551,0.564
			c-0.127,0.217-0.191,0.441-0.191,0.672c0,0.24,0.076,0.437,0.227,0.59c0.15,0.153,0.341,0.229,0.572,0.229
			c0.184,0,0.381-0.043,0.593-0.131c0.212-0.087,0.415-0.208,0.608-0.363L25.188,17.654z M25.711,16.813
			c0.203-0.156,0.35-0.316,0.441-0.481c0.092-0.164,0.138-0.344,0.138-0.536c0-0.198-0.048-0.356-0.145-0.474
			c-0.097-0.118-0.228-0.177-0.392-0.177c-0.302,0-0.453,0.214-0.453,0.643c0,0.184,0.036,0.363,0.106,0.537
			C25.478,16.5,25.579,16.662,25.711,16.813z"/>
		<path fill="#1FBECC" d="M34.112,20.225c-0.424,0-0.807-0.062-1.148-0.187c-0.341-0.125-0.631-0.305-0.869-0.537
			c-0.237-0.233-0.421-0.517-0.551-0.849s-0.194-0.705-0.194-1.119c0-0.429,0.069-0.821,0.209-1.177
			c0.139-0.355,0.333-0.661,0.582-0.915c0.25-0.255,0.549-0.451,0.897-0.59c0.349-0.14,0.735-0.209,1.159-0.209
			c0.292,0,0.57,0.04,0.834,0.12s0.549,0.21,0.854,0.389l0.135-0.438h0.254v1.787h-0.353c-0.095-0.442-0.284-0.786-0.569-1.031
			s-0.642-0.368-1.07-0.368c-0.542,0-0.962,0.209-1.262,0.626c-0.299,0.417-0.448,1-0.448,1.749c0,0.734,0.146,1.298,0.438,1.688
			c0.293,0.391,0.717,0.587,1.272,0.587c0.4,0,0.712-0.103,0.937-0.308c0.224-0.205,0.335-0.489,0.335-0.852
			c0-0.217-0.057-0.376-0.169-0.478c-0.113-0.101-0.304-0.163-0.572-0.187v-0.283h2.289v0.283c-0.23,0-0.392,0.051-0.48,0.151
			c-0.09,0.102-0.135,0.284-0.135,0.548v0.939c-0.104,0-0.19,0.004-0.261,0.011c-0.071,0.008-0.141,0.021-0.209,0.043
			c-0.068,0.021-0.145,0.055-0.229,0.103c-0.085,0.047-0.19,0.108-0.318,0.184C35.106,20.12,34.654,20.225,34.112,20.225z"/>
		<path fill="#1FBECC" d="M42.13,20.155h-4.869v-0.282c0.155-0.005,0.283-0.02,0.382-0.043s0.174-0.063,0.227-0.12
			c0.052-0.057,0.087-0.137,0.105-0.24s0.028-0.237,0.028-0.402v-3.265c0-0.165-0.008-0.298-0.024-0.399s-0.049-0.182-0.096-0.24
			s-0.114-0.099-0.201-0.12c-0.088-0.021-0.201-0.036-0.343-0.046v-0.282h2.438v0.282c-0.16,0.005-0.288,0.019-0.385,0.042
			c-0.097,0.024-0.171,0.066-0.223,0.128c-0.052,0.061-0.086,0.146-0.103,0.254s-0.024,0.252-0.024,0.431v2.961
			c0,0.198,0.02,0.359,0.06,0.484s0.109,0.222,0.209,0.29c0.099,0.068,0.23,0.115,0.396,0.141c0.165,0.026,0.369,0.039,0.614,0.039
			c0.273,0,0.502-0.017,0.686-0.05c0.184-0.032,0.338-0.095,0.463-0.187s0.225-0.216,0.301-0.371
			c0.075-0.155,0.139-0.358,0.19-0.608h0.282L42.13,20.155z"/>
		<path fill="#1FBECC" d="M46.115,18.508h-2c-0.221,0.499-0.332,0.846-0.332,1.039c0,0.141,0.054,0.23,0.159,0.269
			c0.106,0.037,0.265,0.057,0.478,0.057v0.282h-1.937v-0.282c0.113-0.015,0.211-0.033,0.293-0.057c0.083-0.023,0.155-0.057,0.22-0.1
			c0.063-0.042,0.118-0.098,0.166-0.166c0.047-0.068,0.092-0.151,0.134-0.251l1.858-4.656h0.522l1.689,4.127
			c0.099,0.24,0.183,0.429,0.251,0.565s0.141,0.241,0.219,0.314c0.078,0.072,0.167,0.123,0.269,0.151s0.231,0.05,0.393,0.063v0.29
			h-2.672v-0.29c0.227-0.009,0.389-0.032,0.488-0.07c0.099-0.038,0.148-0.113,0.148-0.227c0-0.065-0.017-0.15-0.05-0.254
			s-0.078-0.23-0.134-0.382L46.115,18.508z M44.278,18.085h1.682l-0.812-2.141h-0.028L44.278,18.085z"/>
		<path fill="#1FBECC" d="M48.825,18.353h0.275c0.065,0.447,0.245,0.8,0.537,1.057s0.652,0.385,1.081,0.385
			c0.174,0,0.334-0.021,0.48-0.063c0.146-0.043,0.271-0.103,0.374-0.181c0.104-0.077,0.185-0.169,0.24-0.275
			c0.057-0.105,0.085-0.225,0.085-0.356c0-0.113-0.018-0.211-0.053-0.294c-0.035-0.082-0.103-0.162-0.201-0.24
			c-0.1-0.077-0.234-0.156-0.406-0.236s-0.395-0.172-0.668-0.275c-0.551-0.212-0.959-0.458-1.223-0.738s-0.396-0.611-0.396-0.993
			c0-0.222,0.042-0.424,0.127-0.607s0.204-0.342,0.357-0.474c0.152-0.132,0.336-0.234,0.551-0.308
			c0.214-0.072,0.451-0.109,0.71-0.109c0.24,0,0.467,0.038,0.679,0.113s0.421,0.188,0.629,0.339l0.127-0.354h0.17l0.077,1.526
			h-0.275c-0.113-0.386-0.29-0.682-0.53-0.887s-0.518-0.307-0.833-0.307c-0.293,0-0.529,0.071-0.711,0.215
			c-0.181,0.144-0.271,0.329-0.271,0.555c0,0.1,0.017,0.187,0.049,0.266c0.033,0.077,0.095,0.151,0.185,0.222
			c0.089,0.071,0.212,0.143,0.367,0.216s0.355,0.154,0.601,0.244c0.33,0.127,0.611,0.256,0.845,0.385
			c0.232,0.13,0.424,0.269,0.572,0.417s0.258,0.305,0.328,0.47s0.106,0.347,0.106,0.544c0,0.24-0.052,0.46-0.156,0.657
			c-0.104,0.198-0.248,0.368-0.435,0.509c-0.186,0.142-0.407,0.252-0.664,0.332s-0.54,0.12-0.852,0.12
			c-0.282,0-0.536-0.038-0.763-0.116s-0.459-0.204-0.699-0.378l-0.142,0.424h-0.17L48.825,18.353z"/>
		<path fill="#1FBECC" d="M53.49,18.353h0.275c0.065,0.447,0.245,0.8,0.537,1.057s0.652,0.385,1.081,0.385
			c0.174,0,0.334-0.021,0.48-0.063c0.146-0.043,0.271-0.103,0.374-0.181c0.104-0.077,0.185-0.169,0.24-0.275
			c0.057-0.105,0.085-0.225,0.085-0.356c0-0.113-0.018-0.211-0.053-0.294c-0.035-0.082-0.103-0.162-0.201-0.24
			c-0.1-0.077-0.234-0.156-0.406-0.236s-0.395-0.172-0.668-0.275c-0.551-0.212-0.959-0.458-1.223-0.738s-0.396-0.611-0.396-0.993
			c0-0.222,0.042-0.424,0.127-0.607s0.204-0.342,0.357-0.474c0.152-0.132,0.336-0.234,0.551-0.308
			c0.214-0.072,0.451-0.109,0.71-0.109c0.24,0,0.467,0.038,0.679,0.113s0.421,0.188,0.629,0.339l0.127-0.354h0.17l0.077,1.526
			h-0.275c-0.113-0.386-0.29-0.682-0.53-0.887s-0.518-0.307-0.833-0.307c-0.293,0-0.529,0.071-0.711,0.215
			c-0.181,0.144-0.271,0.329-0.271,0.555c0,0.1,0.017,0.187,0.049,0.266c0.033,0.077,0.095,0.151,0.185,0.222
			c0.089,0.071,0.212,0.143,0.367,0.216s0.355,0.154,0.601,0.244c0.33,0.127,0.611,0.256,0.845,0.385
			c0.232,0.13,0.424,0.269,0.572,0.417s0.258,0.305,0.328,0.47s0.106,0.347,0.106,0.544c0,0.24-0.052,0.46-0.156,0.657
			c-0.104,0.198-0.248,0.368-0.435,0.509c-0.186,0.142-0.407,0.252-0.664,0.332s-0.54,0.12-0.852,0.12
			c-0.282,0-0.536-0.038-0.763-0.116s-0.459-0.204-0.699-0.378l-0.142,0.424h-0.17L53.49,18.353z"/>
		<path fill="#1FBECC" d="M3.406,24.503c0.133,0,0.244-0.008,0.334-0.024c0.089-0.016,0.16-0.041,0.214-0.075
			c0.053-0.034,0.091-0.078,0.114-0.132c0.023-0.055,0.035-0.118,0.035-0.192h0.129v1.005H4.102c0-0.073-0.01-0.137-0.031-0.192
			c-0.021-0.054-0.058-0.098-0.11-0.134c-0.053-0.036-0.124-0.063-0.214-0.08c-0.089-0.019-0.203-0.028-0.341-0.028v0.832
			c0,0.08,0.01,0.148,0.03,0.201c0.019,0.053,0.053,0.095,0.101,0.129c0.048,0.033,0.111,0.057,0.19,0.07
			c0.078,0.014,0.175,0.021,0.29,0.021c0.13,0,0.241-0.01,0.332-0.028c0.091-0.019,0.167-0.05,0.228-0.094
			c0.061-0.044,0.11-0.102,0.147-0.175c0.037-0.072,0.068-0.163,0.092-0.271h0.14l-0.056,0.726H2.614v-0.14
			c0.086-0.002,0.155-0.01,0.208-0.022c0.053-0.013,0.094-0.034,0.123-0.063c0.03-0.03,0.049-0.071,0.059-0.125
			c0.01-0.055,0.015-0.124,0.015-0.211v-1.716c0-0.085-0.004-0.155-0.013-0.208c-0.009-0.053-0.026-0.094-0.052-0.125
			c-0.026-0.031-0.064-0.052-0.112-0.063c-0.049-0.011-0.113-0.019-0.192-0.024v-0.14h2.129l0.033,0.647H4.684
			c-0.015-0.098-0.039-0.179-0.072-0.241c-0.033-0.063-0.078-0.112-0.136-0.149c-0.058-0.037-0.131-0.063-0.219-0.077
			c-0.088-0.015-0.196-0.022-0.321-0.022H3.468c-0.042,0-0.063,0.021-0.063,0.063V24.503z"/>
		<path fill="#1FBECC" d="M6.643,24.544c0.059-0.073,0.088-0.136,0.088-0.188c0-0.078-0.072-0.118-0.217-0.118V24.11h0.806v0.128
			c-0.044,0-0.084,0.005-0.12,0.015c-0.036,0.01-0.071,0.026-0.105,0.048c-0.035,0.023-0.07,0.053-0.105,0.09
			c-0.036,0.039-0.075,0.085-0.12,0.142l-0.379,0.483l0.49,0.644c0.076,0.1,0.146,0.171,0.212,0.212
			c0.065,0.041,0.135,0.061,0.208,0.061v0.129h-0.98v-0.129c0.088,0,0.15-0.007,0.184-0.02c0.034-0.014,0.052-0.04,0.052-0.079
			c0-0.017-0.01-0.043-0.031-0.075s-0.056-0.081-0.105-0.145l-0.258-0.332l-0.313,0.397c-0.037,0.045-0.055,0.088-0.055,0.133
			c0,0.034,0.014,0.064,0.044,0.086c0.029,0.024,0.076,0.035,0.14,0.035v0.129H5.236v-0.129c0.057,0,0.107-0.005,0.151-0.015
			c0.044-0.009,0.087-0.027,0.127-0.052c0.041-0.024,0.082-0.059,0.125-0.102c0.043-0.045,0.091-0.099,0.145-0.166l0.376-0.461
			l-0.49-0.696c-0.056-0.078-0.108-0.132-0.154-0.16c-0.047-0.028-0.106-0.043-0.177-0.043V24.11h0.906v0.128
			c-0.066,0-0.114,0.008-0.143,0.024c-0.029,0.017-0.044,0.038-0.044,0.065c0,0.037,0.023,0.088,0.07,0.155l0.265,0.387
			L6.643,24.544z"/>
		<path fill="#1FBECC" d="M9.098,25.796H9.083c-0.086,0.108-0.175,0.186-0.267,0.232c-0.092,0.047-0.203,0.07-0.333,0.07
			c-0.138,0-0.263-0.024-0.376-0.071c-0.113-0.048-0.211-0.115-0.292-0.203c-0.082-0.087-0.146-0.192-0.192-0.313
			c-0.045-0.122-0.068-0.255-0.068-0.4c0-0.145,0.024-0.28,0.073-0.407c0.049-0.126,0.117-0.235,0.203-0.329
			s0.187-0.167,0.302-0.221c0.116-0.054,0.239-0.08,0.372-0.08c0.133,0,0.261,0.027,0.383,0.08c0.123,0.055,0.224,0.126,0.305,0.217
			l0.162-0.254h0.092v2.276c0,0.103,0.003,0.184,0.009,0.242c0.006,0.06,0.022,0.105,0.048,0.137
			c0.026,0.032,0.064,0.053,0.114,0.063c0.05,0.01,0.12,0.016,0.208,0.018v0.129H8.704v-0.129c0.078-0.002,0.143-0.01,0.193-0.024
			c0.051-0.013,0.09-0.037,0.12-0.07c0.03-0.034,0.051-0.077,0.063-0.133c0.012-0.055,0.019-0.124,0.019-0.208V25.796z
			 M9.087,24.883c0-0.09-0.013-0.175-0.04-0.252c-0.027-0.077-0.065-0.143-0.114-0.199s-0.107-0.098-0.173-0.131
			c-0.066-0.032-0.138-0.048-0.214-0.048c-0.088,0-0.167,0.02-0.237,0.06c-0.07,0.039-0.13,0.094-0.181,0.167
			c-0.05,0.072-0.089,0.161-0.116,0.263c-0.027,0.103-0.041,0.217-0.041,0.343c0,0.128,0.013,0.243,0.041,0.347
			c0.027,0.103,0.066,0.191,0.116,0.263c0.051,0.072,0.111,0.128,0.182,0.168c0.071,0.039,0.151,0.059,0.239,0.059
			c0.101,0,0.192-0.023,0.273-0.07c0.081-0.047,0.142-0.113,0.184-0.2c0.054-0.107,0.081-0.256,0.081-0.445V24.883z"/>
		<path fill="#1FBECC" d="M11.473,24.699c0-0.1-0.002-0.18-0.007-0.237c-0.005-0.058-0.018-0.102-0.039-0.133
			c-0.021-0.031-0.052-0.052-0.092-0.063c-0.041-0.011-0.096-0.02-0.168-0.028V24.11h0.667v1.13c0,0.14,0.001,0.254,0.005,0.343
			c0.003,0.088,0.009,0.155,0.016,0.199c0.005,0.032,0.013,0.058,0.024,0.075c0.011,0.019,0.028,0.034,0.05,0.045
			c0.022,0.011,0.051,0.018,0.086,0.022c0.035,0.004,0.081,0.006,0.138,0.006v0.128l-0.608,0.045l-0.04-0.442h-0.015
			c-0.093,0.152-0.201,0.263-0.322,0.333c-0.122,0.071-0.249,0.105-0.381,0.105c-0.103,0-0.203-0.02-0.3-0.059
			c-0.097-0.04-0.17-0.092-0.219-0.159c-0.042-0.054-0.072-0.128-0.09-0.224c-0.018-0.095-0.028-0.219-0.028-0.371v-0.586
			c0-0.1-0.002-0.18-0.007-0.237c-0.004-0.058-0.017-0.102-0.038-0.133c-0.021-0.031-0.052-0.052-0.092-0.063
			c-0.04-0.011-0.096-0.02-0.167-0.028V24.11h0.666v1.005c0,0.267,0.031,0.462,0.094,0.582c0.063,0.12,0.163,0.181,0.3,0.181
			c0.216,0,0.384-0.142,0.504-0.424c0.012-0.03,0.022-0.057,0.029-0.08c0.007-0.025,0.013-0.052,0.018-0.081
			c0.005-0.03,0.008-0.063,0.011-0.099c0.002-0.037,0.004-0.081,0.004-0.133V24.699z"/>
		<path fill="#1FBECC" d="M13.152,25.475c0,0.096,0.004,0.173,0.013,0.23c0.008,0.058,0.025,0.103,0.05,0.136
			c0.024,0.034,0.059,0.057,0.103,0.069c0.044,0.012,0.103,0.02,0.177,0.022v0.129h-1.057v-0.129
			c0.073-0.002,0.134-0.01,0.181-0.024c0.046-0.013,0.082-0.036,0.108-0.067c0.026-0.031,0.043-0.073,0.052-0.128
			c0.008-0.056,0.013-0.126,0.013-0.213v-0.471c0-0.143-0.002-0.26-0.005-0.352c-0.003-0.092-0.01-0.156-0.02-0.19
			c-0.012-0.057-0.04-0.095-0.084-0.116c-0.044-0.021-0.128-0.032-0.251-0.032v-0.129l0.722-0.139V25.475z M12.729,23.326
			c0-0.065,0.022-0.118,0.067-0.162c0.044-0.045,0.098-0.067,0.162-0.067c0.064,0,0.118,0.022,0.162,0.067
			c0.044,0.044,0.067,0.097,0.067,0.162c0,0.064-0.022,0.117-0.067,0.162c-0.044,0.044-0.098,0.067-0.162,0.067
			c-0.064,0-0.118-0.023-0.162-0.067C12.751,23.443,12.729,23.389,12.729,23.326z"/>
		<path fill="#1FBECC" d="M13.916,26.061h-0.081v-0.634h0.092c0.096,0.347,0.27,0.519,0.523,0.519c0.098,0,0.176-0.024,0.234-0.071
			c0.058-0.048,0.086-0.121,0.086-0.219c0-0.037-0.005-0.069-0.016-0.093c-0.011-0.026-0.032-0.054-0.063-0.081
			c-0.031-0.028-0.073-0.061-0.129-0.097c-0.055-0.037-0.128-0.083-0.219-0.14c-0.083-0.052-0.156-0.099-0.217-0.144
			c-0.062-0.044-0.113-0.088-0.155-0.134c-0.042-0.046-0.073-0.094-0.094-0.146c-0.021-0.052-0.031-0.111-0.031-0.18
			c0-0.083,0.014-0.161,0.042-0.23c0.028-0.071,0.067-0.13,0.116-0.179s0.107-0.087,0.173-0.116
			c0.067-0.028,0.139-0.042,0.217-0.042c0.066,0,0.135,0.01,0.206,0.031c0.071,0.021,0.134,0.049,0.188,0.082l0.073-0.076h0.07v0.53
			h-0.096c-0.054-0.15-0.113-0.257-0.177-0.321c-0.064-0.064-0.142-0.095-0.236-0.095c-0.083,0-0.15,0.022-0.201,0.066
			c-0.05,0.045-0.075,0.106-0.075,0.185c0,0.042,0.007,0.077,0.02,0.108c0.013,0.031,0.035,0.061,0.065,0.09
			c0.029,0.03,0.067,0.06,0.112,0.09c0.045,0.031,0.1,0.066,0.164,0.105c0.105,0.066,0.196,0.125,0.271,0.177
			c0.075,0.051,0.136,0.102,0.182,0.152c0.047,0.051,0.081,0.103,0.103,0.157c0.022,0.054,0.033,0.115,0.033,0.184
			c0,0.175-0.057,0.312-0.17,0.411c-0.113,0.099-0.261,0.149-0.445,0.149c-0.192,0-0.356-0.056-0.494-0.166L13.916,26.061z"/>
		<path fill="#1FBECC" d="M16.099,25.475c0,0.096,0.004,0.173,0.013,0.23c0.008,0.058,0.025,0.103,0.05,0.136
			c0.024,0.034,0.059,0.057,0.103,0.069s0.103,0.02,0.177,0.022v0.129h-1.057v-0.129c0.073-0.002,0.134-0.01,0.181-0.024
			c0.046-0.013,0.082-0.036,0.108-0.067c0.026-0.031,0.043-0.073,0.052-0.128c0.008-0.056,0.013-0.126,0.013-0.213v-0.471
			c0-0.143-0.002-0.26-0.005-0.352c-0.003-0.092-0.01-0.156-0.02-0.19c-0.012-0.057-0.04-0.095-0.084-0.116
			c-0.044-0.021-0.128-0.032-0.251-0.032v-0.129l0.722-0.139V25.475z M15.676,23.326c0-0.065,0.022-0.118,0.067-0.162
			c0.044-0.045,0.098-0.067,0.162-0.067c0.064,0,0.118,0.022,0.162,0.067c0.044,0.044,0.067,0.097,0.067,0.162
			c0,0.064-0.022,0.117-0.067,0.162c-0.044,0.044-0.098,0.067-0.162,0.067c-0.064,0-0.118-0.023-0.162-0.067
			C15.698,23.443,15.676,23.389,15.676,23.326z"/>
		<path fill="#1FBECC" d="M16.622,24.341v-0.136c0.13-0.076,0.232-0.152,0.305-0.228c0.074-0.075,0.13-0.167,0.169-0.272h0.107
			v0.464h0.494v0.173h-0.494v1.12c0,0.085,0.004,0.158,0.013,0.216c0.009,0.06,0.023,0.106,0.043,0.142
			c0.019,0.036,0.045,0.061,0.077,0.075c0.032,0.015,0.072,0.022,0.122,0.022c0.062,0,0.114-0.013,0.156-0.039
			c0.043-0.026,0.085-0.069,0.127-0.13l0.092,0.07c-0.035,0.091-0.094,0.161-0.179,0.209c-0.085,0.048-0.19,0.071-0.315,0.071
			c-0.162,0-0.285-0.039-0.37-0.116c-0.085-0.077-0.127-0.188-0.127-0.333v-1.308H16.622z"/>
		<path fill="#1FBECC" d="M19.769,25.719c-0.209,0.253-0.467,0.379-0.777,0.379c-0.145,0-0.277-0.024-0.394-0.071
			c-0.118-0.048-0.219-0.115-0.304-0.203c-0.084-0.087-0.15-0.192-0.197-0.313c-0.047-0.122-0.07-0.256-0.07-0.403
			c0-0.15,0.025-0.289,0.074-0.416c0.049-0.128,0.118-0.237,0.208-0.329c0.089-0.09,0.196-0.162,0.32-0.214
			c0.124-0.052,0.26-0.076,0.407-0.076c0.238,0,0.422,0.064,0.552,0.193c0.13,0.129,0.195,0.314,0.195,0.554
			c0,0.035-0.007,0.056-0.02,0.063c-0.013,0.008-0.045,0.011-0.094,0.011h-1.212c-0.005,0.02-0.008,0.044-0.011,0.072
			c-0.002,0.028-0.004,0.06-0.004,0.093c0,0.128,0.015,0.244,0.046,0.349c0.031,0.104,0.075,0.193,0.133,0.267
			c0.058,0.073,0.127,0.13,0.207,0.171c0.079,0.041,0.168,0.061,0.267,0.061c0.103,0,0.199-0.023,0.287-0.068
			c0.088-0.046,0.179-0.12,0.273-0.223L19.769,25.719z M19.162,24.725c0.049,0,0.088-0.001,0.118-0.004
			c0.029-0.002,0.052-0.007,0.067-0.015c0.014-0.007,0.024-0.018,0.029-0.031c0.005-0.014,0.007-0.032,0.007-0.054
			c0-0.113-0.036-0.203-0.109-0.271c-0.072-0.067-0.171-0.1-0.296-0.1c-0.265,0-0.429,0.158-0.494,0.475H19.162z"/>
		<path fill="#1FBECC" d="M22.856,25.402l0.957-2.176h0.825v0.14c-0.079,0.002-0.142,0.012-0.19,0.029
			c-0.048,0.018-0.085,0.047-0.111,0.086c-0.026,0.041-0.043,0.096-0.052,0.168c-0.008,0.071-0.012,0.162-0.012,0.272v1.444
			c0,0.123,0.004,0.219,0.014,0.291c0.01,0.071,0.029,0.126,0.057,0.166c0.028,0.04,0.069,0.065,0.122,0.077
			c0.053,0.012,0.122,0.02,0.208,0.022v0.14h-1.193v-0.14c0.086-0.002,0.155-0.01,0.208-0.024c0.053-0.014,0.094-0.039,0.123-0.075
			c0.03-0.037,0.049-0.089,0.059-0.157s0.015-0.159,0.015-0.274v-1.709H23.85l-1.075,2.416h-0.081l-1.057-2.416h-0.014v1.683
			c0,0.123,0.004,0.219,0.014,0.291c0.01,0.071,0.029,0.126,0.057,0.166c0.028,0.04,0.069,0.065,0.122,0.077
			c0.053,0.012,0.122,0.02,0.208,0.022v0.14h-1.027v-0.14c0.086-0.002,0.155-0.01,0.208-0.024c0.053-0.014,0.094-0.039,0.123-0.075
			c0.03-0.037,0.049-0.089,0.059-0.157c0.01-0.068,0.015-0.159,0.015-0.274v-1.495c0-0.103-0.004-0.189-0.013-0.256
			c-0.009-0.068-0.026-0.121-0.052-0.161c-0.026-0.039-0.064-0.067-0.112-0.082c-0.049-0.016-0.113-0.026-0.192-0.031v-0.14h0.88
			l0.928,2.176H22.856z"/>
		<path fill="#1FBECC" d="M25.738,25.475c0,0.096,0.004,0.173,0.013,0.23c0.008,0.058,0.025,0.103,0.05,0.136
			c0.024,0.034,0.059,0.057,0.103,0.069s0.103,0.02,0.177,0.022v0.129h-1.057v-0.129c0.073-0.002,0.134-0.01,0.181-0.024
			c0.046-0.013,0.082-0.036,0.108-0.067c0.026-0.031,0.043-0.073,0.052-0.128c0.008-0.056,0.013-0.126,0.013-0.213v-0.471
			c0-0.143-0.002-0.26-0.005-0.352c-0.003-0.092-0.01-0.156-0.02-0.19c-0.012-0.057-0.04-0.095-0.084-0.116
			c-0.044-0.021-0.128-0.032-0.251-0.032v-0.129l0.722-0.139V25.475z M25.314,23.326c0-0.065,0.022-0.118,0.067-0.162
			c0.044-0.045,0.098-0.067,0.162-0.067c0.064,0,0.118,0.022,0.162,0.067c0.044,0.044,0.067,0.097,0.067,0.162
			c0,0.064-0.022,0.117-0.067,0.162c-0.044,0.044-0.098,0.067-0.162,0.067c-0.064,0-0.118-0.023-0.162-0.067
			C25.337,23.443,25.314,23.389,25.314,23.326z"/>
		<path fill="#1FBECC" d="M27.025,25.483c0,0.1,0.002,0.18,0.007,0.237s0.018,0.102,0.039,0.132
			c0.021,0.031,0.052,0.052,0.092,0.062c0.041,0.01,0.096,0.017,0.168,0.022v0.125h-0.965v-0.125
			c0.069-0.005,0.124-0.012,0.164-0.022c0.041-0.01,0.072-0.03,0.094-0.06c0.022-0.029,0.036-0.071,0.042-0.125
			c0.006-0.054,0.009-0.127,0.009-0.22v-0.49c0-0.293-0.007-0.471-0.022-0.534c-0.007-0.032-0.016-0.059-0.028-0.079
			c-0.011-0.021-0.027-0.037-0.05-0.048c-0.022-0.011-0.05-0.019-0.084-0.022c-0.035-0.004-0.079-0.006-0.133-0.006v-0.118
			l0.589-0.139l0.044,0.364h0.015c0.093-0.116,0.203-0.206,0.328-0.269c0.125-0.064,0.262-0.095,0.409-0.095
			c0.113,0,0.216,0.018,0.309,0.055c0.093,0.037,0.164,0.087,0.214,0.151c0.042,0.057,0.071,0.13,0.088,0.219
			c0.017,0.089,0.026,0.213,0.026,0.37v0.615c0,0.1,0.003,0.18,0.009,0.237c0.006,0.058,0.019,0.102,0.039,0.132
			c0.019,0.031,0.05,0.052,0.09,0.062c0.041,0.01,0.094,0.017,0.16,0.022v0.125h-0.954v-0.125c0.069-0.003,0.124-0.009,0.164-0.02
			c0.041-0.012,0.071-0.032,0.092-0.062c0.021-0.029,0.034-0.071,0.04-0.127c0.006-0.055,0.009-0.128,0.009-0.218v-0.487
			c0-0.14-0.007-0.257-0.022-0.354c-0.014-0.095-0.039-0.173-0.071-0.231c-0.033-0.06-0.077-0.101-0.131-0.127
			c-0.054-0.026-0.119-0.039-0.195-0.039c-0.11,0-0.212,0.029-0.304,0.086c-0.092,0.058-0.164,0.137-0.215,0.237
			c-0.012,0.025-0.022,0.048-0.031,0.071c-0.008,0.022-0.015,0.048-0.02,0.076c-0.005,0.03-0.009,0.064-0.011,0.101
			c-0.002,0.039-0.003,0.087-0.003,0.146V25.483z"/>
		<path fill="#1FBECC" d="M30.66,25.719c-0.209,0.253-0.467,0.379-0.777,0.379c-0.145,0-0.277-0.024-0.394-0.071
			c-0.118-0.048-0.219-0.115-0.304-0.203c-0.084-0.087-0.15-0.192-0.197-0.313c-0.047-0.122-0.07-0.256-0.07-0.403
			c0-0.15,0.025-0.289,0.074-0.416c0.049-0.128,0.118-0.237,0.208-0.329c0.089-0.09,0.196-0.162,0.32-0.214
			c0.124-0.052,0.26-0.076,0.407-0.076c0.238,0,0.422,0.064,0.552,0.193s0.195,0.314,0.195,0.554c0,0.035-0.007,0.056-0.02,0.063
			c-0.013,0.008-0.045,0.011-0.094,0.011h-1.212c-0.005,0.02-0.008,0.044-0.011,0.072c-0.002,0.028-0.004,0.06-0.004,0.093
			c0,0.128,0.015,0.244,0.046,0.349c0.031,0.104,0.075,0.193,0.133,0.267c0.058,0.073,0.127,0.13,0.207,0.171
			c0.079,0.041,0.168,0.061,0.267,0.061c0.103,0,0.199-0.023,0.287-0.068c0.088-0.046,0.179-0.12,0.273-0.223L30.66,25.719z
			 M30.053,24.725c0.049,0,0.088-0.001,0.118-0.004c0.029-0.002,0.052-0.007,0.067-0.015c0.014-0.007,0.024-0.018,0.029-0.031
			c0.005-0.014,0.007-0.032,0.007-0.054c0-0.113-0.036-0.203-0.109-0.271c-0.072-0.067-0.171-0.1-0.296-0.1
			c-0.265,0-0.429,0.158-0.494,0.475H30.053z"/>
		<path fill="#1FBECC" d="M31.666,25.475c0,0.101,0.003,0.181,0.008,0.239c0.005,0.06,0.018,0.104,0.039,0.135
			c0.021,0.031,0.051,0.051,0.089,0.061c0.04,0.01,0.095,0.017,0.166,0.022v0.129h-0.979v-0.129c0.071-0.002,0.127-0.009,0.169-0.02
			c0.043-0.011,0.074-0.032,0.096-0.061c0.022-0.03,0.036-0.072,0.043-0.127c0.006-0.056,0.009-0.13,0.009-0.223V25.07
			c0-0.167-0.002-0.297-0.006-0.39c-0.003-0.093-0.016-0.162-0.037-0.206c-0.021-0.045-0.054-0.071-0.097-0.079
			c-0.045-0.009-0.105-0.013-0.185-0.013v-0.129l0.644-0.14l0.052,0.457h0.015c0.032-0.073,0.072-0.141,0.12-0.203
			c0.048-0.062,0.099-0.113,0.156-0.156c0.057-0.044,0.115-0.077,0.177-0.101c0.062-0.025,0.124-0.037,0.188-0.037
			c0.079,0,0.141,0.019,0.187,0.057c0.045,0.038,0.068,0.089,0.068,0.153c0,0.059-0.018,0.105-0.055,0.138s-0.09,0.05-0.159,0.05
			c-0.039,0-0.072-0.005-0.099-0.015c-0.027-0.01-0.051-0.02-0.071-0.031c-0.021-0.011-0.041-0.022-0.06-0.032
			c-0.018-0.01-0.038-0.015-0.061-0.015c-0.066,0-0.132,0.043-0.199,0.127c-0.067,0.085-0.118,0.193-0.155,0.323
			c-0.02,0.071-0.035,0.151-0.046,0.241c-0.011,0.089-0.017,0.183-0.017,0.281V25.475z"/>
		<path fill="#1FBECC" d="M33.939,24.813v-0.151c0-0.3-0.127-0.45-0.382-0.45c-0.043,0-0.077,0.004-0.107,0.012
			c-0.03,0.007-0.054,0.019-0.073,0.037c-0.02,0.017-0.038,0.042-0.054,0.073c-0.016,0.032-0.031,0.071-0.046,0.117
			c-0.028,0.071-0.054,0.119-0.079,0.142c-0.026,0.024-0.064,0.035-0.112,0.035c-0.123,0-0.185-0.061-0.185-0.184
			c0-0.118,0.063-0.21,0.189-0.274c0.125-0.066,0.303-0.097,0.533-0.097c0.245,0,0.42,0.043,0.523,0.13s0.155,0.235,0.155,0.444
			v0.825c0,0.28,0.055,0.419,0.165,0.419c0.035,0,0.068-0.004,0.1-0.013c0.032-0.008,0.059-0.031,0.08-0.068l0.052,0.088
			c-0.03,0.057-0.083,0.103-0.162,0.142c-0.078,0.038-0.161,0.057-0.247,0.057c-0.107,0-0.188-0.035-0.24-0.103
			c-0.054-0.069-0.079-0.166-0.079-0.291H33.95c-0.064,0.12-0.152,0.215-0.265,0.286c-0.112,0.07-0.237,0.104-0.375,0.104
			c-0.155,0-0.276-0.039-0.364-0.117c-0.088-0.078-0.133-0.185-0.133-0.317c0-0.06,0.011-0.115,0.032-0.17
			c0.021-0.054,0.055-0.105,0.101-0.155c0.047-0.049,0.108-0.097,0.184-0.145c0.076-0.048,0.17-0.096,0.28-0.145L33.939,24.813z
			 M33.939,24.971c-0.14,0.055-0.258,0.107-0.356,0.159c-0.096,0.052-0.175,0.103-0.233,0.155c-0.059,0.051-0.101,0.102-0.127,0.154
			s-0.039,0.104-0.039,0.159c0,0.08,0.027,0.147,0.081,0.199c0.054,0.052,0.125,0.077,0.214,0.077c0.064,0,0.123-0.016,0.179-0.048
			c0.055-0.032,0.103-0.075,0.145-0.131c0.042-0.056,0.074-0.12,0.099-0.196c0.025-0.074,0.037-0.154,0.037-0.237V24.971z"/>
		<path fill="#1FBECC" d="M35.598,25.487c0,0.092,0.004,0.168,0.011,0.224c0.008,0.057,0.023,0.1,0.047,0.132
			c0.023,0.032,0.056,0.055,0.099,0.067c0.043,0.012,0.099,0.02,0.171,0.022v0.129H34.91v-0.129c0.073-0.002,0.132-0.01,0.177-0.024
			c0.044-0.013,0.078-0.035,0.104-0.065c0.026-0.029,0.043-0.071,0.052-0.123c0.009-0.053,0.013-0.122,0.013-0.209v-1.587
			c0-0.132-0.002-0.243-0.005-0.333c-0.004-0.09-0.01-0.151-0.017-0.183c-0.012-0.057-0.042-0.094-0.086-0.114
			c-0.046-0.02-0.127-0.03-0.245-0.03v-0.125l0.696-0.136V25.487z"/>
		<path fill="#1FBECC" d="M36.361,26.061h-0.081v-0.634h0.092c0.095,0.347,0.27,0.519,0.523,0.519c0.097,0,0.176-0.024,0.233-0.071
			c0.058-0.048,0.086-0.121,0.086-0.219c0-0.037-0.005-0.069-0.016-0.093c-0.012-0.026-0.033-0.054-0.063-0.081
			c-0.031-0.028-0.074-0.061-0.129-0.097c-0.056-0.037-0.128-0.083-0.219-0.14c-0.083-0.052-0.156-0.099-0.217-0.144
			c-0.062-0.044-0.112-0.088-0.154-0.134c-0.043-0.046-0.073-0.094-0.094-0.146c-0.021-0.052-0.032-0.111-0.032-0.18
			c0-0.083,0.015-0.161,0.043-0.23c0.028-0.071,0.067-0.13,0.116-0.179c0.049-0.049,0.106-0.087,0.173-0.116
			c0.067-0.028,0.139-0.042,0.217-0.042c0.067,0,0.135,0.01,0.207,0.031c0.071,0.021,0.133,0.049,0.188,0.082l0.073-0.076h0.07v0.53
			h-0.095c-0.054-0.15-0.113-0.257-0.177-0.321c-0.064-0.064-0.142-0.095-0.235-0.095c-0.083,0-0.151,0.022-0.201,0.066
			c-0.051,0.045-0.075,0.106-0.075,0.185c0,0.042,0.006,0.077,0.02,0.108c0.013,0.031,0.035,0.061,0.065,0.09
			c0.029,0.03,0.067,0.06,0.112,0.09c0.046,0.031,0.1,0.066,0.164,0.105c0.105,0.066,0.196,0.125,0.271,0.177
			c0.074,0.051,0.135,0.102,0.182,0.152c0.047,0.051,0.081,0.103,0.103,0.157c0.022,0.054,0.033,0.115,0.033,0.184
			c0,0.175-0.057,0.312-0.169,0.411c-0.113,0.099-0.262,0.149-0.446,0.149c-0.192,0-0.356-0.056-0.494-0.166L36.361,26.061z"/>
		<path fill="#1FBECC" d="M39.874,24.813v-0.151c0-0.3-0.127-0.45-0.382-0.45c-0.043,0-0.077,0.004-0.107,0.012
			c-0.03,0.007-0.054,0.019-0.073,0.037c-0.02,0.017-0.038,0.042-0.054,0.073c-0.016,0.032-0.031,0.071-0.046,0.117
			c-0.028,0.071-0.054,0.119-0.079,0.142c-0.026,0.024-0.064,0.035-0.112,0.035c-0.123,0-0.185-0.061-0.185-0.184
			c0-0.118,0.063-0.21,0.189-0.274c0.125-0.066,0.303-0.097,0.533-0.097c0.245,0,0.42,0.043,0.523,0.13s0.155,0.235,0.155,0.444
			v0.825c0,0.28,0.055,0.419,0.165,0.419c0.035,0,0.068-0.004,0.1-0.013c0.032-0.008,0.059-0.031,0.08-0.068l0.052,0.088
			c-0.03,0.057-0.083,0.103-0.162,0.142c-0.078,0.038-0.161,0.057-0.247,0.057c-0.107,0-0.188-0.035-0.24-0.103
			c-0.054-0.069-0.079-0.166-0.079-0.291h-0.019c-0.064,0.12-0.152,0.215-0.265,0.286c-0.112,0.07-0.237,0.104-0.375,0.104
			c-0.155,0-0.276-0.039-0.364-0.117c-0.088-0.078-0.133-0.185-0.133-0.317c0-0.06,0.011-0.115,0.032-0.17
			c0.021-0.054,0.055-0.105,0.101-0.155c0.047-0.049,0.108-0.097,0.184-0.145c0.076-0.048,0.17-0.096,0.28-0.145L39.874,24.813z
			 M39.874,24.971c-0.14,0.055-0.258,0.107-0.356,0.159c-0.096,0.052-0.175,0.103-0.233,0.155c-0.059,0.051-0.101,0.102-0.127,0.154
			s-0.039,0.104-0.039,0.159c0,0.08,0.027,0.147,0.081,0.199c0.054,0.052,0.125,0.077,0.214,0.077c0.064,0,0.123-0.016,0.179-0.048
			c0.055-0.032,0.103-0.075,0.145-0.131c0.042-0.056,0.074-0.12,0.099-0.196c0.025-0.074,0.037-0.154,0.037-0.237V24.971z"/>
		<path fill="#1FBECC" d="M41.535,25.483c0,0.1,0.002,0.18,0.007,0.237c0.005,0.058,0.018,0.102,0.039,0.132
			c0.021,0.031,0.052,0.052,0.092,0.062c0.041,0.01,0.096,0.017,0.168,0.022v0.125h-0.965v-0.125
			c0.069-0.005,0.123-0.012,0.164-0.022c0.041-0.01,0.072-0.03,0.094-0.06c0.022-0.029,0.036-0.071,0.042-0.125
			c0.007-0.054,0.01-0.127,0.01-0.22v-0.49c0-0.293-0.008-0.471-0.023-0.534c-0.007-0.032-0.016-0.059-0.027-0.079
			c-0.011-0.021-0.028-0.037-0.05-0.048c-0.023-0.011-0.051-0.019-0.085-0.022c-0.034-0.004-0.078-0.006-0.132-0.006v-0.118
			l0.589-0.139l0.045,0.364h0.014c0.093-0.116,0.203-0.206,0.328-0.269c0.126-0.064,0.262-0.095,0.409-0.095
			c0.113,0,0.216,0.018,0.31,0.055c0.093,0.037,0.164,0.087,0.214,0.151c0.042,0.057,0.071,0.13,0.088,0.219
			c0.017,0.089,0.026,0.213,0.026,0.37v0.615c0,0.1,0.003,0.18,0.009,0.237s0.019,0.102,0.039,0.132
			c0.02,0.031,0.05,0.052,0.09,0.062c0.04,0.01,0.093,0.017,0.16,0.022v0.125h-0.953v-0.125c0.069-0.003,0.123-0.009,0.164-0.02
			c0.04-0.012,0.071-0.032,0.091-0.062c0.021-0.029,0.035-0.071,0.041-0.127c0.006-0.055,0.009-0.128,0.009-0.218v-0.487
			c0-0.14-0.007-0.257-0.022-0.354c-0.015-0.095-0.039-0.173-0.071-0.231c-0.034-0.06-0.076-0.101-0.131-0.127
			c-0.054-0.026-0.119-0.039-0.195-0.039c-0.111,0-0.213,0.029-0.304,0.086c-0.092,0.058-0.164,0.137-0.215,0.237
			c-0.013,0.025-0.023,0.048-0.032,0.071c-0.008,0.022-0.015,0.048-0.02,0.076c-0.005,0.03-0.009,0.064-0.011,0.101
			c-0.003,0.039-0.004,0.087-0.004,0.146V25.483z"/>
		<path fill="#1FBECC" d="M45.021,25.753h-0.015c-0.088,0.125-0.183,0.214-0.282,0.266c-0.099,0.053-0.216,0.079-0.352,0.079
			c-0.14,0-0.268-0.025-0.384-0.075c-0.117-0.051-0.217-0.12-0.302-0.21c-0.085-0.09-0.151-0.198-0.2-0.323
			c-0.048-0.125-0.071-0.261-0.071-0.408c0-0.145,0.024-0.28,0.071-0.403c0.049-0.124,0.114-0.231,0.2-0.321
			c0.084-0.089,0.186-0.16,0.303-0.21c0.118-0.051,0.246-0.075,0.383-0.075c0.118,0,0.223,0.019,0.315,0.059
			c0.092,0.039,0.182,0.101,0.267,0.188v-0.375c0-0.14-0.002-0.257-0.005-0.351c-0.004-0.092-0.01-0.157-0.017-0.191
			c-0.013-0.055-0.047-0.092-0.103-0.114c-0.057-0.023-0.149-0.034-0.276-0.034v-0.11l0.755-0.14v2.125
			c0,0.169,0.001,0.309,0.004,0.418c0.002,0.109,0.01,0.187,0.022,0.233c0.007,0.03,0.017,0.055,0.028,0.073
			c0.011,0.02,0.027,0.036,0.048,0.047s0.049,0.019,0.084,0.024c0.036,0.005,0.081,0.007,0.138,0.007v0.125l-0.611,0.041V25.753z
			 M44.948,24.938c0-0.128-0.007-0.224-0.021-0.291c-0.013-0.067-0.04-0.124-0.078-0.173c-0.057-0.073-0.129-0.13-0.215-0.168
			c-0.087-0.038-0.174-0.057-0.26-0.057c-0.177,0-0.311,0.072-0.403,0.218c-0.092,0.146-0.138,0.345-0.138,0.595
			c0,0.13,0.012,0.248,0.035,0.354c0.024,0.105,0.058,0.196,0.103,0.271c0.046,0.074,0.102,0.132,0.17,0.173
			c0.068,0.041,0.145,0.061,0.233,0.061c0.045,0,0.089-0.005,0.135-0.015c0.045-0.01,0.089-0.025,0.132-0.046
			c0.043-0.021,0.082-0.046,0.12-0.073c0.037-0.029,0.067-0.061,0.091-0.098c0.035-0.054,0.06-0.118,0.073-0.195
			c0.015-0.076,0.023-0.181,0.023-0.313V24.938z"/>
		<path fill="#1FBECC" d="M48.173,26.098c-0.209,0-0.396-0.033-0.563-0.099c-0.167-0.067-0.31-0.16-0.427-0.282
			c-0.118-0.121-0.209-0.269-0.271-0.444c-0.063-0.174-0.094-0.367-0.094-0.581c0-0.223,0.035-0.428,0.103-0.612
			c0.07-0.184,0.166-0.343,0.289-0.475c0.124-0.133,0.273-0.235,0.446-0.308c0.173-0.072,0.364-0.108,0.573-0.108
			c0.147,0,0.286,0.021,0.416,0.063s0.271,0.109,0.423,0.203l0.077-0.228h0.129l-0.048,0.847H49.05c0-0.121-0.023-0.224-0.069-0.312
			c-0.046-0.087-0.105-0.159-0.179-0.215c-0.073-0.057-0.158-0.098-0.252-0.125s-0.191-0.041-0.289-0.041
			c-0.15,0-0.283,0.03-0.401,0.088c-0.118,0.06-0.217,0.144-0.298,0.254c-0.081,0.11-0.143,0.245-0.187,0.405
			c-0.043,0.16-0.065,0.341-0.065,0.541c0,0.395,0.082,0.699,0.247,0.912c0.164,0.213,0.402,0.319,0.714,0.319
			c0.118,0,0.223-0.014,0.317-0.043c0.093-0.028,0.173-0.067,0.237-0.114c0.066-0.048,0.114-0.103,0.148-0.166
			c0.033-0.063,0.05-0.128,0.05-0.197c0-0.142-0.029-0.238-0.086-0.289c-0.058-0.051-0.152-0.075-0.282-0.075v-0.14h1.046v0.14
			c-0.059,0-0.108,0.005-0.147,0.015c-0.04,0.01-0.071,0.027-0.094,0.053c-0.023,0.026-0.039,0.06-0.048,0.101
			c-0.009,0.042-0.013,0.095-0.013,0.159v0.412c-0.047,0-0.089,0.002-0.127,0.006c-0.038,0.003-0.077,0.012-0.119,0.026
			c-0.043,0.013-0.088,0.032-0.139,0.055c-0.05,0.024-0.109,0.055-0.178,0.094c-0.086,0.049-0.185,0.088-0.297,0.118
			C48.428,26.083,48.306,26.098,48.173,26.098z"/>
		<path fill="#1FBECC" d="M51.786,25.719c-0.209,0.253-0.468,0.379-0.778,0.379c-0.145,0-0.276-0.024-0.394-0.071
			c-0.117-0.048-0.218-0.115-0.303-0.203c-0.085-0.087-0.151-0.192-0.198-0.313c-0.047-0.122-0.07-0.256-0.07-0.403
			c0-0.15,0.024-0.289,0.073-0.416c0.049-0.128,0.118-0.237,0.208-0.329c0.09-0.09,0.197-0.162,0.321-0.214s0.259-0.076,0.407-0.076
			c0.238,0,0.422,0.064,0.552,0.193s0.196,0.314,0.196,0.554c0,0.035-0.007,0.056-0.021,0.063c-0.013,0.008-0.045,0.011-0.093,0.011
			h-1.212c-0.005,0.02-0.009,0.044-0.012,0.072c-0.002,0.028-0.003,0.06-0.003,0.093c0,0.128,0.015,0.244,0.046,0.349
			c0.031,0.104,0.074,0.193,0.133,0.267c0.058,0.073,0.126,0.13,0.206,0.171c0.08,0.041,0.169,0.061,0.267,0.061
			c0.103,0,0.199-0.023,0.287-0.068c0.088-0.046,0.18-0.12,0.273-0.223L51.786,25.719z M51.178,24.725
			c0.049,0,0.088-0.001,0.118-0.004c0.029-0.002,0.051-0.007,0.066-0.015c0.015-0.007,0.025-0.018,0.03-0.031
			c0.005-0.014,0.007-0.032,0.007-0.054c0-0.113-0.036-0.203-0.108-0.271c-0.072-0.067-0.171-0.1-0.297-0.1
			c-0.265,0-0.429,0.158-0.493,0.475H51.178z"/>
		<path fill="#1FBECC" d="M52.782,25.472c0,0.103,0.002,0.184,0.007,0.242c0.005,0.06,0.018,0.104,0.039,0.135
			c0.021,0.031,0.051,0.051,0.09,0.061c0.039,0.01,0.094,0.017,0.166,0.022v0.129h-0.98v-0.129c0.071-0.005,0.128-0.012,0.17-0.022
			c0.042-0.01,0.073-0.03,0.095-0.059c0.022-0.03,0.037-0.072,0.043-0.127c0.006-0.056,0.009-0.13,0.009-0.223v-0.471
			c0-0.14-0.002-0.257-0.005-0.351c-0.004-0.093-0.011-0.157-0.021-0.191c-0.007-0.033-0.016-0.058-0.026-0.075
			c-0.01-0.019-0.026-0.034-0.048-0.045s-0.051-0.019-0.086-0.022c-0.036-0.004-0.081-0.006-0.138-0.006v-0.129l0.6-0.139
			l0.048,0.367h0.019c0.11-0.125,0.226-0.217,0.348-0.278c0.122-0.06,0.256-0.089,0.403-0.089c0.155,0,0.285,0.031,0.391,0.093
			c0.105,0.063,0.179,0.153,0.22,0.271h0.015c0.09-0.116,0.202-0.206,0.332-0.269c0.13-0.064,0.268-0.095,0.416-0.095
			c0.115,0,0.22,0.019,0.315,0.057s0.166,0.09,0.215,0.157c0.044,0.056,0.075,0.13,0.093,0.222c0.019,0.092,0.028,0.217,0.028,0.377
			v0.586c0,0.1,0.003,0.18,0.009,0.239c0.006,0.059,0.019,0.104,0.039,0.136s0.05,0.053,0.09,0.063s0.096,0.017,0.168,0.022v0.129
			h-0.98v-0.129c0.07-0.002,0.124-0.009,0.166-0.02s0.073-0.032,0.096-0.063c0.022-0.031,0.036-0.073,0.042-0.127
			c0.007-0.055,0.01-0.128,0.01-0.221v-0.464c0-0.14-0.008-0.258-0.023-0.356c-0.014-0.096-0.039-0.175-0.073-0.235
			c-0.034-0.061-0.079-0.104-0.134-0.131c-0.056-0.027-0.122-0.041-0.201-0.041c-0.108,0-0.21,0.031-0.304,0.09
			c-0.094,0.061-0.169,0.141-0.223,0.241c-0.012,0.025-0.022,0.049-0.031,0.072c-0.009,0.023-0.016,0.049-0.02,0.076
			c-0.005,0.029-0.008,0.063-0.01,0.101c-0.001,0.04-0.002,0.088-0.002,0.148v0.468c0,0.1,0.003,0.18,0.008,0.239
			c0.005,0.059,0.018,0.104,0.039,0.136c0.021,0.032,0.052,0.053,0.093,0.063c0.042,0.01,0.098,0.017,0.17,0.022v0.129h-0.979
			v-0.129c0.069-0.005,0.123-0.012,0.165-0.022c0.042-0.01,0.073-0.03,0.094-0.059c0.021-0.03,0.035-0.072,0.041-0.127
			c0.006-0.056,0.009-0.13,0.009-0.223v-0.464c0-0.142-0.007-0.262-0.022-0.358c-0.015-0.097-0.039-0.176-0.072-0.236
			c-0.033-0.06-0.076-0.103-0.13-0.129c-0.055-0.026-0.12-0.039-0.199-0.039c-0.111,0-0.214,0.031-0.312,0.09
			c-0.096,0.061-0.17,0.141-0.218,0.241c-0.013,0.025-0.023,0.049-0.032,0.072c-0.009,0.023-0.015,0.049-0.02,0.076
			c-0.005,0.029-0.008,0.063-0.01,0.101c-0.001,0.04-0.001,0.088-0.001,0.148V25.472z"/>
		<path fill="#1FBECC" d="M56.267,26.061h-0.081v-0.634h0.092c0.095,0.347,0.27,0.519,0.523,0.519c0.097,0,0.176-0.024,0.233-0.071
			c0.058-0.048,0.086-0.121,0.086-0.219c0-0.037-0.005-0.069-0.016-0.093c-0.012-0.026-0.033-0.054-0.063-0.081
			c-0.031-0.028-0.074-0.061-0.129-0.097c-0.056-0.037-0.128-0.083-0.219-0.14c-0.083-0.052-0.156-0.099-0.217-0.144
			c-0.062-0.044-0.112-0.088-0.154-0.134c-0.043-0.046-0.073-0.094-0.094-0.146c-0.021-0.052-0.032-0.111-0.032-0.18
			c0-0.083,0.015-0.161,0.043-0.23c0.028-0.071,0.067-0.13,0.116-0.179c0.049-0.049,0.106-0.087,0.173-0.116
			c0.067-0.028,0.139-0.042,0.217-0.042c0.067,0,0.135,0.01,0.207,0.031c0.071,0.021,0.133,0.049,0.188,0.082l0.073-0.076h0.07v0.53
			h-0.095c-0.054-0.15-0.113-0.257-0.177-0.321c-0.064-0.064-0.142-0.095-0.235-0.095c-0.083,0-0.151,0.022-0.201,0.066
			c-0.051,0.045-0.075,0.106-0.075,0.185c0,0.042,0.006,0.077,0.02,0.108c0.013,0.031,0.035,0.061,0.065,0.09
			c0.029,0.03,0.067,0.06,0.112,0.09c0.046,0.031,0.1,0.066,0.164,0.105c0.105,0.066,0.196,0.125,0.271,0.177
			c0.074,0.051,0.135,0.102,0.182,0.152c0.047,0.051,0.081,0.103,0.103,0.157c0.022,0.054,0.033,0.115,0.033,0.184
			c0,0.175-0.057,0.312-0.169,0.411c-0.113,0.099-0.262,0.149-0.446,0.149c-0.192,0-0.356-0.056-0.494-0.166L56.267,26.061z"/>
	</g>
</g>
</svg>
